<svg width="261" height="182" viewBox="0 0 261 182" fill="none" xmlns="http://www.w3.org/2000/svg">
<path d="M41.6477 95.9994C39.0942 96.0349 36.8878 94.5738 36.6024 91.9549C36.5105 91.1105 36.5884 90.1756 36.5863 89.32C35.4147 89.2103 34.2001 88.9572 33.0485 88.7198C15.0566 85.0088 2.08377 69.9909 0.107905 52.189C-0.0339746 50.9107 0.00439655 49.6102 0.00562829 48.3255C0.0234989 29.5643 13.2065 12.9169 31.7437 8.38611C33.3272 7.99908 34.9316 7.66793 36.5542 7.48928L36.5387 7.29018C36.275 3.70114 37.0195 0.280817 41.321 0.000702228L41.3471 0C42.7817 0.0164044 44.1235 0.593989 45.137 1.59728C46.8229 3.26591 46.5158 5.39158 46.5087 7.55368C46.6997 7.70293 47.4114 7.71053 47.6838 7.75787L51.6498 8.51586C68.1701 12.3936 80.9231 27.2516 82.7962 43.8471C83.2212 47.6142 82.9524 52.4925 82.2595 56.1602C79.2981 71.8367 66.6509 84.9406 50.9285 88.5366C48.611 89.0667 46.3742 89.0463 46.3688 89.4159C46.3435 91.1729 46.5297 92.6798 45.3466 94.1618C44.4061 95.3399 43.1076 95.8178 41.6477 95.9994ZM36.5264 17.0501C19.7529 20.1607 8.36773 34.0284 9.47769 50.8345C10.3449 63.9638 20.2804 75.8585 33.1708 79.1142L35.3097 79.5668C35.6972 79.6377 36.2464 79.6458 36.598 79.8036L36.6003 72.7177C36.3744 72.5509 36.1316 72.5119 35.884 72.3927L28.6909 68.3193C27.3424 67.5253 25.9894 66.7168 24.7761 65.7268C20.9685 62.6203 19.0261 57.4388 18.8401 52.6256C18.8268 52.2791 18.7852 51.9037 18.8209 51.5591C19.4882 51.9882 20.2428 52.3196 20.9389 52.7121L35.1671 61.261C35.5677 61.5067 36.4166 61.8817 36.7005 62.1622L36.761 52.5501C36.7725 51.8748 36.4287 51.914 35.8886 51.564L19.3328 41.4094C18.9295 41.1621 19.014 41.1454 19.1009 40.7086L19.3259 39.6754C20.7639 33.8241 24.3996 31.367 29.1182 28.477L34.0658 25.53C34.2836 25.4087 36.56 24.2715 36.594 24.2085L36.5264 17.0501ZM46.4045 17.086C46.255 18.7128 46.2028 22.7962 46.4151 24.3783C47.379 24.9137 48.4381 25.3269 49.4235 25.8318L54.5721 28.7798C59.6467 31.9002 63.1939 34.9906 63.9314 41.3049L63.868 41.3371C63.2966 41.6327 62.7701 42.0278 62.2243 42.3697L46.8573 51.8314C46.6439 51.9537 46.5095 51.9632 46.3508 52.1679L46.4224 62.13C46.5872 61.9598 46.8256 61.9098 47.0252 61.7912L62.8559 52.3599C63.3555 52.075 63.8838 51.8155 64.3507 51.4797C64.2076 52.5776 64.22 53.6875 64.0352 54.7813C63.3674 58.7361 61.4417 63.2211 58.1815 65.7175L53.9022 68.5688L47.0089 72.3733C46.7684 72.4836 46.5105 72.5195 46.3308 72.721L46.4387 79.8424C46.6765 79.7381 46.9717 79.73 47.2258 79.6786L48.7596 79.3429C63.7419 75.9114 73.9212 62.7949 73.6358 47.748C73.3519 32.7824 61.4421 19.0959 46.4045 17.086ZM41.6264 32.0773L31.8938 37.9979L41.6197 43.9899C42.7928 43.4054 43.9082 42.7135 45.0249 42.0315L50.4782 38.6326C50.7375 38.4655 51.0596 38.2917 51.2669 38.0665L41.6264 32.0773Z" fill="#0E0230"/>
<path d="M124.844 76.672C123.108 76.672 121.764 76.196 120.812 75.244C119.916 74.236 119.468 72.864 119.468 71.128V21.568C119.468 19.776 119.916 18.432 120.812 17.536C121.764 16.584 123.108 16.108 124.844 16.108C126.58 16.108 127.896 16.584 128.792 17.536C129.744 18.432 130.22 19.776 130.22 21.568V42.988H130.388L154.496 18.796C155.392 17.9 156.288 17.228 157.184 16.78C158.08 16.332 159.088 16.108 160.208 16.108C161.832 16.108 162.98 16.528 163.652 17.368C164.38 18.208 164.66 19.188 164.492 20.308C164.38 21.428 163.848 22.464 162.896 23.416L138.368 47.692L138.452 42.82L164.072 68.86C165.248 69.98 165.864 71.156 165.92 72.388C165.976 73.62 165.584 74.656 164.744 75.496C163.96 76.28 162.784 76.672 161.216 76.672C159.872 76.672 158.78 76.392 157.94 75.832C157.156 75.272 156.232 74.46 155.168 73.396L130.388 48.616H130.22V71.128C130.22 72.864 129.772 74.236 128.876 75.244C127.98 76.196 126.636 76.672 124.844 76.672ZM194.523 76.672C193.011 76.672 191.779 76.308 190.827 75.58C189.931 74.852 189.203 73.704 188.643 72.136L171.087 22.492C170.471 20.7 170.583 19.188 171.423 17.956C172.319 16.724 173.803 16.108 175.875 16.108C177.387 16.108 178.563 16.472 179.403 17.2C180.243 17.872 180.915 18.964 181.419 20.476L196.539 65.332H193.179L208.971 20.56C209.531 19.048 210.231 17.928 211.071 17.2C211.911 16.472 213.003 16.108 214.347 16.108C215.691 16.108 216.755 16.472 217.539 17.2C218.323 17.928 218.995 19.076 219.555 20.644L234.843 65.332H231.903L247.275 20.476C247.779 19.02 248.451 17.928 249.291 17.2C250.131 16.472 251.279 16.108 252.735 16.108C254.527 16.108 255.843 16.724 256.683 17.956C257.523 19.188 257.635 20.7 257.019 22.492L239.295 72.22C238.735 73.732 238.007 74.852 237.111 75.58C236.215 76.308 235.011 76.672 233.499 76.672C231.987 76.672 230.783 76.308 229.887 75.58C228.991 74.852 228.263 73.704 227.703 72.136L213.087 30.472H215.019L200.235 72.22C199.675 73.732 198.947 74.852 198.051 75.58C197.211 76.308 196.035 76.672 194.523 76.672Z" fill="#0E0230"/>
<path d="M11.84 145.32C10.2827 145.32 8.90667 145.117 7.712 144.712C6.53867 144.307 5.54667 143.709 4.736 142.92C3.92533 142.109 3.31733 141.107 2.912 139.912C2.50667 138.717 2.304 137.331 2.304 135.752V124.264C2.304 123.56 2.47467 123.037 2.816 122.696C3.17867 122.355 3.69067 122.184 4.352 122.184C5.01333 122.184 5.51467 122.355 5.856 122.696C6.21867 123.037 6.4 123.56 6.4 124.264V135.72C6.4 137.747 6.85867 139.272 7.776 140.296C8.71467 141.299 10.0693 141.8 11.84 141.8C13.6107 141.8 14.9547 141.299 15.872 140.296C16.7893 139.272 17.248 137.747 17.248 135.72V124.264C17.248 123.56 17.4187 123.037 17.76 122.696C18.1227 122.355 18.6347 122.184 19.296 122.184C19.936 122.184 20.4267 122.355 20.768 122.696C21.1307 123.037 21.312 123.56 21.312 124.264V135.752C21.312 137.843 20.9493 139.603 20.224 141.032C19.52 142.461 18.464 143.539 17.056 144.264C15.648 144.968 13.9093 145.32 11.84 145.32ZM26.857 145.256C26.1957 145.256 25.6837 145.075 25.321 144.712C24.9797 144.328 24.809 143.805 24.809 143.144V124.296C24.809 123.613 24.9797 123.091 25.321 122.728C25.6837 122.365 26.1957 122.184 26.857 122.184C27.5183 122.184 28.0197 122.365 28.361 122.728C28.7237 123.091 28.905 123.613 28.905 124.296V143.144C28.905 143.805 28.7343 144.328 28.393 144.712C28.0517 145.075 27.5397 145.256 26.857 145.256ZM34.0963 145.16C33.3709 145.16 32.7843 144.936 32.3363 144.488C31.9096 144.04 31.6963 143.464 31.6963 142.76C31.6963 142.077 31.9096 141.523 32.3363 141.096C32.7843 140.648 33.3709 140.424 34.0963 140.424C34.8429 140.424 35.4189 140.648 35.8243 141.096C36.2509 141.523 36.4643 142.077 36.4643 142.76C36.4643 143.464 36.2509 144.04 35.8243 144.488C35.4189 144.936 34.8429 145.16 34.0963 145.16ZM47.9688 145.32C46.4114 145.32 45.0354 145.117 43.8408 144.712C42.6674 144.307 41.6754 143.709 40.8647 142.92C40.0541 142.109 39.4461 141.107 39.0408 139.912C38.6354 138.717 38.4327 137.331 38.4327 135.752V124.264C38.4327 123.56 38.6034 123.037 38.9448 122.696C39.3074 122.355 39.8194 122.184 40.4808 122.184C41.1421 122.184 41.6434 122.355 41.9848 122.696C42.3474 123.037 42.5287 123.56 42.5287 124.264V135.72C42.5287 137.747 42.9874 139.272 43.9048 140.296C44.8434 141.299 46.1981 141.8 47.9688 141.8C49.7394 141.8 51.0834 141.299 52.0008 140.296C52.9181 139.272 53.3768 137.747 53.3768 135.72V124.264C53.3768 123.56 53.5474 123.037 53.8888 122.696C54.2514 122.355 54.7634 122.184 55.4248 122.184C56.0648 122.184 56.5554 122.355 56.8968 122.696C57.2594 123.037 57.4408 123.56 57.4408 124.264V135.752C57.4408 137.843 57.0781 139.603 56.3528 141.032C55.6488 142.461 54.5928 143.539 53.1848 144.264C51.7768 144.968 50.0381 145.32 47.9688 145.32ZM61.4558 145.256C60.9224 145.256 60.4851 145.117 60.1438 144.84C59.8024 144.541 59.5998 144.179 59.5358 143.752C59.4931 143.304 59.6424 142.856 59.9838 142.408L67.3118 132.648V134.408L60.3358 125.064C59.9944 124.595 59.8451 124.147 59.8878 123.72C59.9304 123.272 60.1224 122.909 60.4638 122.632C60.8051 122.333 61.2318 122.184 61.7438 122.184C62.1704 122.184 62.5438 122.291 62.8638 122.504C63.2051 122.696 63.5464 123.027 63.8878 123.496L69.6478 131.432H68.3358L74.0638 123.496C74.4051 123.027 74.7358 122.696 75.0558 122.504C75.3971 122.291 75.7918 122.184 76.2398 122.184C76.7731 122.184 77.2104 122.323 77.5518 122.6C77.8931 122.877 78.0851 123.24 78.1278 123.688C78.1704 124.115 78.0104 124.573 77.6478 125.064L70.6718 134.408V132.648L77.9678 142.408C78.3091 142.856 78.4584 143.304 78.4158 143.752C78.3731 144.179 78.1811 144.541 77.8398 144.84C77.4984 145.117 77.0504 145.256 76.4958 145.256C76.0904 145.256 75.7171 145.149 75.3758 144.936C75.0558 144.723 74.7144 144.381 74.3518 143.912L68.2718 135.592H69.6798L63.6318 143.912C63.2904 144.381 62.9491 144.723 62.6078 144.936C62.2664 145.149 61.8824 145.256 61.4558 145.256ZM96.0913 145.32C95.1526 145.32 94.2139 145.245 93.2752 145.096C92.3366 144.968 91.4512 144.765 90.6192 144.488C89.7872 144.189 89.0406 143.827 88.3792 143.4C87.9952 143.144 87.7286 142.835 87.5792 142.472C87.4299 142.109 87.3766 141.757 87.4192 141.416C87.4832 141.053 87.6219 140.744 87.8352 140.488C88.0699 140.211 88.3579 140.04 88.6992 139.976C89.0406 139.912 89.4139 140.008 89.8192 140.264C90.7579 140.819 91.7499 141.224 92.7952 141.48C93.8406 141.736 94.9392 141.864 96.0913 141.864C97.7766 141.864 99.0033 141.587 99.7713 141.032C100.539 140.456 100.923 139.72 100.923 138.824C100.923 138.077 100.646 137.491 100.091 137.064C99.5579 136.637 98.6299 136.285 97.3073 136.008L93.7873 135.272C91.7606 134.845 90.2459 134.131 89.2432 133.128C88.2619 132.104 87.7712 130.76 87.7712 129.096C87.7712 128.051 87.9846 127.101 88.4112 126.248C88.8379 125.395 89.4352 124.659 90.2032 124.04C90.9926 123.421 91.9206 122.952 92.9872 122.632C94.0753 122.291 95.2699 122.12 96.5712 122.12C97.8513 122.12 99.0673 122.28 100.219 122.6C101.371 122.92 102.406 123.389 103.323 124.008C103.665 124.243 103.889 124.531 103.995 124.872C104.123 125.213 104.155 125.555 104.091 125.896C104.027 126.216 103.878 126.493 103.643 126.728C103.409 126.963 103.11 127.101 102.747 127.144C102.406 127.187 102.011 127.08 101.563 126.824C100.774 126.376 99.9739 126.056 99.1632 125.864C98.3526 125.672 97.4779 125.576 96.5393 125.576C95.5579 125.576 94.7153 125.715 94.0113 125.992C93.3073 126.269 92.7633 126.664 92.3793 127.176C92.0166 127.667 91.8352 128.253 91.8352 128.936C91.8352 129.704 92.0912 130.323 92.6033 130.792C93.1153 131.24 93.9899 131.592 95.2273 131.848L98.7153 132.584C100.827 133.032 102.395 133.736 103.419 134.696C104.465 135.656 104.987 136.936 104.987 138.536C104.987 139.56 104.774 140.488 104.347 141.32C103.942 142.152 103.345 142.867 102.555 143.464C101.787 144.061 100.859 144.52 99.7713 144.84C98.6833 145.16 97.4566 145.32 96.0913 145.32ZM117.335 145.32C115.159 145.32 113.249 144.84 111.607 143.88C109.985 142.92 108.727 141.576 107.831 139.848C106.935 138.099 106.487 136.051 106.487 133.704C106.487 131.933 106.743 130.344 107.255 128.936C107.767 127.507 108.492 126.291 109.431 125.288C110.391 124.264 111.532 123.485 112.855 122.952C114.199 122.397 115.692 122.12 117.335 122.12C119.532 122.12 121.441 122.6 123.063 123.56C124.684 124.499 125.943 125.832 126.839 127.56C127.735 129.288 128.183 131.325 128.183 133.672C128.183 135.443 127.927 137.043 127.415 138.472C126.903 139.901 126.167 141.128 125.207 142.152C124.268 143.176 123.127 143.965 121.783 144.52C120.46 145.053 118.977 145.32 117.335 145.32ZM117.335 141.8C118.721 141.8 119.895 141.48 120.855 140.84C121.836 140.2 122.583 139.272 123.095 138.056C123.628 136.84 123.895 135.389 123.895 133.704C123.895 131.144 123.319 129.16 122.167 127.752C121.036 126.344 119.425 125.64 117.335 125.64C115.969 125.64 114.796 125.96 113.815 126.6C112.833 127.219 112.076 128.136 111.543 129.352C111.031 130.547 110.775 131.997 110.775 133.704C110.775 136.243 111.351 138.227 112.503 139.656C113.655 141.085 115.265 141.8 117.335 141.8ZM133.18 145.256C132.518 145.256 131.996 145.075 131.612 144.712C131.249 144.328 131.068 143.784 131.068 143.08V124.616C131.068 123.912 131.249 123.379 131.612 123.016C131.996 122.632 132.54 122.44 133.244 122.44H144.412C144.966 122.44 145.382 122.579 145.66 122.856C145.937 123.133 146.076 123.528 146.076 124.04C146.076 124.573 145.937 124.989 145.66 125.288C145.382 125.565 144.966 125.704 144.412 125.704H135.164V132.072H143.74C144.273 132.072 144.678 132.211 144.956 132.488C145.254 132.765 145.404 133.16 145.404 133.672C145.404 134.205 145.254 134.621 144.956 134.92C144.678 135.197 144.273 135.336 143.74 135.336H135.164V143.08C135.164 144.531 134.502 145.256 133.18 145.256ZM155.494 145.256C154.833 145.256 154.321 145.075 153.958 144.712C153.617 144.328 153.446 143.805 153.446 143.144V125.864H147.206C146.652 125.864 146.214 125.715 145.894 125.416C145.596 125.096 145.446 124.669 145.446 124.136C145.446 123.581 145.596 123.165 145.894 122.888C146.214 122.589 146.652 122.44 147.206 122.44H163.782C164.337 122.44 164.764 122.589 165.062 122.888C165.382 123.165 165.542 123.581 165.542 124.136C165.542 124.669 165.382 125.096 165.062 125.416C164.764 125.715 164.337 125.864 163.782 125.864H157.542V143.144C157.542 143.805 157.372 144.328 157.03 144.712C156.689 145.075 156.177 145.256 155.494 145.256ZM175.006 145.256C174.43 145.256 173.961 145.117 173.598 144.84C173.257 144.563 172.98 144.125 172.766 143.528L166.078 124.616C165.844 123.933 165.886 123.357 166.206 122.888C166.548 122.419 167.113 122.184 167.902 122.184C168.478 122.184 168.926 122.323 169.246 122.6C169.566 122.856 169.822 123.272 170.014 123.848L175.774 140.936H174.494L180.51 123.88C180.724 123.304 180.99 122.877 181.31 122.6C181.63 122.323 182.046 122.184 182.558 122.184C183.07 122.184 183.476 122.323 183.774 122.6C184.073 122.877 184.329 123.315 184.542 123.912L190.366 140.936H189.246L195.102 123.848C195.294 123.293 195.55 122.877 195.87 122.6C196.19 122.323 196.628 122.184 197.182 122.184C197.865 122.184 198.366 122.419 198.686 122.888C199.006 123.357 199.049 123.933 198.814 124.616L192.062 143.56C191.849 144.136 191.572 144.563 191.23 144.84C190.889 145.117 190.43 145.256 189.854 145.256C189.278 145.256 188.82 145.117 188.478 144.84C188.137 144.563 187.86 144.125 187.646 143.528L182.078 127.656H182.814L177.182 143.56C176.969 144.136 176.692 144.563 176.35 144.84C176.03 145.117 175.582 145.256 175.006 145.256ZM199.733 145.256C199.221 145.256 198.805 145.139 198.485 144.904C198.186 144.669 198.005 144.36 197.941 143.976C197.877 143.571 197.952 143.123 198.165 142.632L206.613 123.912C206.89 123.293 207.221 122.856 207.605 122.6C208.01 122.323 208.469 122.184 208.981 122.184C209.472 122.184 209.909 122.323 210.293 122.6C210.698 122.856 211.04 123.293 211.317 123.912L219.797 142.632C220.032 143.123 220.117 143.571 220.053 143.976C219.989 144.381 219.808 144.701 219.509 144.936C219.21 145.149 218.816 145.256 218.325 145.256C217.728 145.256 217.258 145.117 216.917 144.84C216.597 144.541 216.309 144.093 216.053 143.496L213.973 138.664L215.701 139.784H202.197L203.925 138.664L201.877 143.496C201.6 144.115 201.312 144.563 201.013 144.84C200.714 145.117 200.288 145.256 199.733 145.256ZM208.917 126.888L204.437 137.544L203.605 136.52H214.293L213.493 137.544L208.981 126.888H208.917ZM224.089 145.256C223.428 145.256 222.916 145.075 222.553 144.712C222.212 144.328 222.041 143.805 222.041 143.144V124.52C222.041 123.837 222.223 123.325 222.585 122.984C222.948 122.621 223.46 122.44 224.121 122.44H231.833C234.308 122.44 236.218 123.037 237.562 124.232C238.905 125.405 239.577 127.059 239.577 129.192C239.577 130.579 239.268 131.773 238.649 132.776C238.052 133.779 237.177 134.547 236.025 135.08C234.873 135.613 233.476 135.88 231.833 135.88L232.122 135.4H233.177C234.052 135.4 234.81 135.613 235.45 136.04C236.111 136.467 236.687 137.139 237.177 138.056L239.577 142.504C239.833 142.952 239.951 143.389 239.93 143.816C239.908 144.243 239.748 144.595 239.45 144.872C239.151 145.128 238.714 145.256 238.138 145.256C237.562 145.256 237.092 145.139 236.729 144.904C236.367 144.648 236.047 144.264 235.77 143.752L232.538 137.8C232.154 137.075 231.695 136.595 231.161 136.36C230.65 136.104 229.988 135.976 229.177 135.976H226.137V143.144C226.137 143.805 225.967 144.328 225.625 144.712C225.284 145.075 224.772 145.256 224.089 145.256ZM226.137 132.936H231.13C232.601 132.936 233.711 132.637 234.458 132.04C235.226 131.421 235.61 130.504 235.61 129.288C235.61 128.093 235.226 127.197 234.458 126.6C233.711 125.981 232.601 125.672 231.13 125.672H226.137V132.936ZM244.875 145C244.171 145 243.627 144.819 243.243 144.456C242.88 144.072 242.699 143.528 242.699 142.824V124.616C242.699 123.912 242.88 123.379 243.243 123.016C243.627 122.632 244.171 122.44 244.875 122.44H256.299C256.832 122.44 257.238 122.579 257.515 122.856C257.814 123.133 257.963 123.528 257.963 124.04C257.963 124.573 257.814 124.989 257.515 125.288C257.238 125.565 256.832 125.704 256.299 125.704H246.635V131.912H255.595C256.15 131.912 256.566 132.051 256.843 132.328C257.12 132.605 257.259 133.011 257.259 133.544C257.259 134.077 257.12 134.483 256.843 134.76C256.566 135.037 256.15 135.176 255.595 135.176H246.635V141.736H256.299C256.832 141.736 257.238 141.875 257.515 142.152C257.814 142.429 257.963 142.835 257.963 143.368C257.963 143.901 257.814 144.307 257.515 144.584C257.238 144.861 256.832 145 256.299 145H244.875ZM4.64 181C3.936 181 3.392 180.819 3.008 180.456C2.64533 180.072 2.464 179.528 2.464 178.824V160.616C2.464 159.912 2.64533 159.379 3.008 159.016C3.392 158.632 3.936 158.44 4.64 158.44H16.064C16.5973 158.44 17.0027 158.579 17.28 158.856C17.5787 159.133 17.728 159.528 17.728 160.04C17.728 160.573 17.5787 160.989 17.28 161.288C17.0027 161.565 16.5973 161.704 16.064 161.704H6.4V167.912H15.36C15.9147 167.912 16.3307 168.051 16.608 168.328C16.8853 168.605 17.024 169.011 17.024 169.544C17.024 170.077 16.8853 170.483 16.608 170.76C16.3307 171.037 15.9147 171.176 15.36 171.176H6.4V177.736H16.064C16.5973 177.736 17.0027 177.875 17.28 178.152C17.5787 178.429 17.728 178.835 17.728 179.368C17.728 179.901 17.5787 180.307 17.28 180.584C17.0027 180.861 16.5973 181 16.064 181H4.64ZM22.1977 181.256C21.5791 181.256 21.0991 181.085 20.7577 180.744C20.4377 180.403 20.2777 179.912 20.2777 179.272V160.232C20.2777 159.571 20.4377 159.069 20.7577 158.728C21.0991 158.365 21.5364 158.184 22.0697 158.184C22.5604 158.184 22.9231 158.28 23.1577 158.472C23.4137 158.643 23.7124 158.941 24.0537 159.368L36.3097 175.272H35.4778V160.136C35.4778 159.517 35.6378 159.037 35.9578 158.696C36.2991 158.355 36.7791 158.184 37.3978 158.184C38.0164 158.184 38.4858 158.355 38.8057 158.696C39.1257 159.037 39.2857 159.517 39.2857 160.136V179.336C39.2857 179.933 39.1364 180.403 38.8377 180.744C38.5391 181.085 38.1337 181.256 37.6217 181.256C37.1311 181.256 36.7364 181.16 36.4377 180.968C36.1604 180.776 35.8511 180.467 35.5098 180.04L23.2857 164.136H24.0857V179.272C24.0857 179.912 23.9257 180.403 23.6057 180.744C23.2857 181.085 22.8164 181.256 22.1977 181.256ZM53.7832 181.32C51.2872 181.32 49.1752 180.851 47.4472 179.912C45.7406 178.973 44.4392 177.64 43.5432 175.912C42.6472 174.184 42.1992 172.136 42.1992 169.768C42.1992 167.976 42.4552 166.365 42.9672 164.936C43.5006 163.507 44.2579 162.291 45.2392 161.288C46.2419 160.264 47.4579 159.485 48.8872 158.952C50.3166 158.397 51.9379 158.12 53.7512 158.12C54.9459 158.12 56.1406 158.269 57.3352 158.568C58.5512 158.845 59.6926 159.325 60.7592 160.008C61.1219 160.243 61.3566 160.531 61.4632 160.872C61.5913 161.213 61.6126 161.565 61.5273 161.928C61.4419 162.269 61.2819 162.568 61.0472 162.824C60.8126 163.08 60.5139 163.24 60.1512 163.304C59.8099 163.368 59.4259 163.283 58.9993 163.048C58.1886 162.579 57.3672 162.237 56.5352 162.024C55.7032 161.811 54.7752 161.704 53.7512 161.704C52.1726 161.704 50.8392 162.024 49.7512 162.664C48.6632 163.283 47.8419 164.189 47.2872 165.384C46.7539 166.579 46.4872 168.04 46.4872 169.768C46.4872 172.392 47.1166 174.387 48.3752 175.752C49.6339 177.117 51.5006 177.8 53.9752 177.8C54.8286 177.8 55.6926 177.715 56.5672 177.544C57.4419 177.373 58.2952 177.139 59.1272 176.84L58.3272 178.664V171.848H54.8072C54.2739 171.848 53.8579 171.709 53.5592 171.432C53.2819 171.155 53.1432 170.781 53.1432 170.312C53.1432 169.821 53.2819 169.448 53.5592 169.192C53.8579 168.936 54.2739 168.808 54.8072 168.808H60.0872C60.6206 168.808 61.0259 168.957 61.3032 169.256C61.6019 169.533 61.7512 169.939 61.7512 170.472V178.248C61.7512 178.717 61.6552 179.112 61.4632 179.432C61.2926 179.752 61.0046 179.987 60.5992 180.136C59.6606 180.477 58.5832 180.765 57.3672 181C56.1512 181.213 54.9566 181.32 53.7832 181.32ZM67.2657 181.256C66.6044 181.256 66.0924 181.075 65.7297 180.712C65.3884 180.328 65.2178 179.805 65.2178 179.144V160.296C65.2178 159.613 65.3884 159.091 65.7297 158.728C66.0924 158.365 66.6044 158.184 67.2657 158.184C67.9271 158.184 68.4284 158.365 68.7698 158.728C69.1324 159.091 69.3138 159.613 69.3138 160.296V179.144C69.3138 179.805 69.1431 180.328 68.8018 180.712C68.4604 181.075 67.9484 181.256 67.2657 181.256ZM74.889 181.256C74.2703 181.256 73.7903 181.085 73.449 180.744C73.129 180.403 72.969 179.912 72.969 179.272V160.232C72.969 159.571 73.129 159.069 73.449 158.728C73.7903 158.365 74.2277 158.184 74.761 158.184C75.2517 158.184 75.6143 158.28 75.849 158.472C76.105 158.643 76.4037 158.941 76.745 159.368L89.001 175.272H88.169V160.136C88.169 159.517 88.329 159.037 88.649 158.696C88.9903 158.355 89.4703 158.184 90.089 158.184C90.7077 158.184 91.177 158.355 91.497 158.696C91.817 159.037 91.977 159.517 91.977 160.136V179.336C91.977 179.933 91.8277 180.403 91.529 180.744C91.2303 181.085 90.825 181.256 90.313 181.256C89.8223 181.256 89.4277 181.16 89.129 180.968C88.8517 180.776 88.5423 180.467 88.201 180.04L75.977 164.136H76.777V179.272C76.777 179.912 76.617 180.403 76.297 180.744C75.977 181.085 75.5077 181.256 74.889 181.256ZM97.8025 181C97.0985 181 96.5545 180.819 96.1705 180.456C95.8078 180.072 95.6265 179.528 95.6265 178.824V160.616C95.6265 159.912 95.8078 159.379 96.1705 159.016C96.5545 158.632 97.0985 158.44 97.8025 158.44H109.226C109.76 158.44 110.165 158.579 110.442 158.856C110.741 159.133 110.89 159.528 110.89 160.04C110.89 160.573 110.741 160.989 110.442 161.288C110.165 161.565 109.76 161.704 109.226 161.704H99.5625V167.912H108.522C109.077 167.912 109.493 168.051 109.771 168.328C110.048 168.605 110.186 169.011 110.186 169.544C110.186 170.077 110.048 170.483 109.771 170.76C109.493 171.037 109.077 171.176 108.522 171.176H99.5625V177.736H109.226C109.76 177.736 110.165 177.875 110.442 178.152C110.741 178.429 110.89 178.835 110.89 179.368C110.89 179.901 110.741 180.307 110.442 180.584C110.165 180.861 109.76 181 109.226 181H97.8025ZM115.616 181C114.912 181 114.368 180.819 113.984 180.456C113.622 180.072 113.44 179.528 113.44 178.824V160.616C113.44 159.912 113.622 159.379 113.984 159.016C114.368 158.632 114.912 158.44 115.616 158.44H127.04C127.574 158.44 127.979 158.579 128.256 158.856C128.555 159.133 128.704 159.528 128.704 160.04C128.704 160.573 128.555 160.989 128.256 161.288C127.979 161.565 127.574 161.704 127.04 161.704H117.376V167.912H126.336C126.891 167.912 127.307 168.051 127.584 168.328C127.862 168.605 128 169.011 128 169.544C128 170.077 127.862 170.483 127.584 170.76C127.307 171.037 126.891 171.176 126.336 171.176H117.376V177.736H127.04C127.574 177.736 127.979 177.875 128.256 178.152C128.555 178.429 128.704 178.835 128.704 179.368C128.704 179.901 128.555 180.307 128.256 180.584C127.979 180.861 127.574 181 127.04 181H115.616ZM133.302 181.256C132.641 181.256 132.129 181.075 131.766 180.712C131.425 180.328 131.254 179.805 131.254 179.144V160.52C131.254 159.837 131.435 159.325 131.798 158.984C132.161 158.621 132.673 158.44 133.334 158.44H141.046C143.521 158.44 145.43 159.037 146.774 160.232C148.118 161.405 148.79 163.059 148.79 165.192C148.79 166.579 148.481 167.773 147.862 168.776C147.265 169.779 146.39 170.547 145.238 171.08C144.086 171.613 142.689 171.88 141.046 171.88L141.334 171.4H142.39C143.265 171.4 144.022 171.613 144.662 172.04C145.323 172.467 145.899 173.139 146.39 174.056L148.79 178.504C149.046 178.952 149.163 179.389 149.142 179.816C149.121 180.243 148.961 180.595 148.662 180.872C148.363 181.128 147.926 181.256 147.35 181.256C146.774 181.256 146.305 181.139 145.942 180.904C145.579 180.648 145.259 180.264 144.982 179.752L141.75 173.8C141.366 173.075 140.907 172.595 140.374 172.36C139.862 172.104 139.201 171.976 138.39 171.976H135.35V179.144C135.35 179.805 135.179 180.328 134.838 180.712C134.497 181.075 133.985 181.256 133.302 181.256ZM135.35 168.936H140.342C141.814 168.936 142.923 168.637 143.67 168.04C144.438 167.421 144.822 166.504 144.822 165.288C144.822 164.093 144.438 163.197 143.67 162.6C142.923 161.981 141.814 161.672 140.342 161.672H135.35V168.936Z" fill="#1C1C20"/>
</svg>
