<svg width="710" height="151" fill="none" xmlns="http://www.w3.org/2000/svg"><path d="M65.231 150.999c-4 .056-7.455-2.242-7.902-6.362-.144-1.328-.022-2.798-.025-4.144-1.835-.173-3.738-.571-5.541-.944-28.18-5.837-48.5-29.459-51.594-57.46-.222-2.01-.162-4.056-.16-6.077.028-29.51 20.676-55.695 49.71-62.821 2.48-.61 4.993-1.13 7.535-1.411l-.025-.313C56.816 5.822 57.982.442 64.72 0L64.76 0c2.247.026 4.35.934 5.937 2.512 2.64 2.625 2.159 5.969 2.148 9.37.3.234 1.414.246 1.84.32l6.212 1.193c25.875 6.1 45.85 29.47 48.784 55.573.666 5.925.244 13.598-.841 19.367-4.638 24.658-24.447 45.27-49.073 50.926-3.63.834-7.133.801-7.141 1.383-.04 2.763.252 5.134-1.601 7.465-1.473 1.853-3.507 2.604-5.794 2.89ZM57.21 26.819c-26.272 4.892-44.104 26.705-42.365 53.14 1.358 20.651 16.92 39.36 37.11 44.481l3.35.712c.606.111 1.467.124 2.017.372l.004-11.145c-.354-.262-.734-.324-1.122-.511l-11.267-6.407c-2.111-1.249-4.23-2.521-6.131-4.078-5.964-4.886-9.006-13.036-9.297-20.607-.021-.545-.086-1.136-.03-1.678 1.045.675 2.227 1.196 3.317 1.814L55.08 96.359c.627.386 1.957.976 2.402 1.417l.095-15.119c.017-1.062-.521-1-1.367-1.551l-25.93-15.972c-.632-.39-.5-.416-.364-1.103l.352-1.625c2.253-9.203 7.947-13.068 15.338-17.614l7.75-4.636c.34-.19 3.906-1.979 3.959-2.078l-.106-11.26Zm15.472.056c-.234 2.559-.316 8.981.016 11.47 1.51.842 3.169 1.492 4.712 2.286l8.064 4.637c7.948 4.908 13.504 9.77 14.66 19.701l-.1.05c-.895.466-1.72 1.087-2.574 1.625L73.39 81.526c-.334.193-.545.208-.793.53l.112 15.67c.258-.269.631-.347.944-.534l24.795-14.834c.782-.448 1.61-.857 2.341-1.385-.224 1.727-.205 3.473-.494 5.193-1.046 6.221-4.062 13.276-9.168 17.202l-6.703 4.485-10.797 5.984c-.376.174-.78.23-1.062.547l.17 11.202c.372-.165.834-.177 1.232-.258l2.403-.528c23.466-5.398 39.409-26.029 38.962-49.696-.444-23.54-19.098-45.068-42.651-48.23Zm-7.484 23.58-15.244 9.313 15.233 9.424c1.838-.919 3.585-2.007 5.334-3.08l8.541-5.346c.406-.263.91-.536 1.236-.89l-15.1-9.421ZM183.844 77.672c-1.736 0-3.08-.476-4.032-1.428-.896-1.008-1.344-2.38-1.344-4.116v-49.56c0-1.792.448-3.136 1.344-4.032.952-.952 2.296-1.428 4.032-1.428 1.736 0 3.052.476 3.948 1.428.952.896 1.428 2.24 1.428 4.032v21.42h.168l24.108-24.192c.896-.896 1.792-1.568 2.688-2.016.896-.448 1.904-.672 3.024-.672 1.624 0 2.772.42 3.444 1.26.728.84 1.008 1.82.84 2.94-.112 1.12-.644 2.156-1.596 3.108l-24.528 24.276.084-4.872 25.62 26.04c1.176 1.12 1.792 2.296 1.848 3.528.056 1.232-.336 2.268-1.176 3.108-.784.784-1.96 1.176-3.528 1.176-1.344 0-2.436-.28-3.276-.84-.784-.56-1.708-1.372-2.772-2.436l-24.78-24.78h-.168v22.512c0 1.736-.448 3.108-1.344 4.116-.896.952-2.24 1.428-4.032 1.428Zm64.457.168c-4.648 0-8.652-.868-12.012-2.604-3.36-1.736-5.964-4.2-7.812-7.392-1.792-3.192-2.688-6.972-2.688-11.34 0-4.256.868-7.98 2.604-11.172 1.792-3.192 4.228-5.684 7.308-7.476 3.136-1.848 6.692-2.772 10.668-2.772 2.912 0 5.516.476 7.812 1.428 2.352.952 4.34 2.324 5.964 4.116 1.68 1.792 2.94 3.976 3.78 6.552.896 2.52 1.344 5.376 1.344 8.568 0 1.008-.364 1.792-1.092 2.352-.672.504-1.652.756-2.94.756h-26.964v-6.048h23.604l-1.344 1.26c0-2.576-.392-4.732-1.176-6.468-.728-1.736-1.82-3.052-3.276-3.948-1.4-.952-3.164-1.428-5.292-1.428-2.352 0-4.368.56-6.048 1.68-1.624 1.064-2.884 2.604-3.78 4.62-.84 1.96-1.26 4.312-1.26 7.056v.588c0 4.592 1.064 8.036 3.192 10.332 2.184 2.24 5.376 3.36 9.576 3.36 1.456 0 3.08-.168 4.872-.504a18.788 18.788 0 0 0 5.208-1.932c1.176-.672 2.212-.952 3.108-.84.896.056 1.596.364 2.1.924.56.56.896 1.26 1.008 2.1.112.784-.056 1.596-.504 2.436-.392.84-1.092 1.568-2.1 2.184-1.96 1.232-4.228 2.156-6.804 2.772-2.52.56-4.872.84-7.056.84Zm37.059-.168c-1.4 0-2.632-.364-3.696-1.092-1.008-.728-1.848-1.848-2.52-3.36l-13.356-30.996c-.504-1.232-.7-2.38-.588-3.444.168-1.064.672-1.904 1.512-2.52.896-.672 2.1-1.008 3.612-1.008 1.288 0 2.324.308 3.108.924.784.56 1.484 1.652 2.1 3.276l11.34 28.308h-2.52l11.676-28.392c.616-1.568 1.316-2.632 2.1-3.192.84-.616 1.96-.924 3.36-.924 1.232 0 2.212.336 2.94 1.008.728.616 1.176 1.456 1.344 2.52.168 1.008-.028 2.128-.588 3.36l-13.608 31.08c-.616 1.512-1.456 2.632-2.52 3.36-1.008.728-2.24 1.092-3.696 1.092Zm28.673-.084c-1.68 0-2.968-.504-3.864-1.512-.896-1.008-1.344-2.408-1.344-4.2V41.048c0-1.848.448-3.248 1.344-4.2.896-1.008 2.184-1.512 3.864-1.512 1.68 0 2.968.504 3.864 1.512.952.952 1.428 2.352 1.428 4.2v30.828c0 1.792-.448 3.192-1.344 4.2-.896 1.008-2.212 1.512-3.948 1.512Zm0-50.064c-1.96 0-3.5-.476-4.62-1.428-1.064-1.008-1.596-2.38-1.596-4.116 0-1.792.532-3.164 1.596-4.116 1.12-.952 2.66-1.428 4.62-1.428 2.016 0 3.556.476 4.62 1.428s1.596 2.324 1.596 4.116c0 1.736-.532 3.108-1.596 4.116-1.064.952-2.604 1.428-4.62 1.428Zm17.21 50.148c-1.68 0-2.968-.448-3.864-1.344-.896-.952-1.344-2.296-1.344-4.032V40.544c0-1.736.448-3.052 1.344-3.948.896-.896 2.156-1.344 3.78-1.344 1.624 0 2.884.448 3.78 1.344.896.896 1.344 2.212 1.344 3.948v5.712l-.924-2.1c1.232-2.968 3.136-5.208 5.712-6.72 2.632-1.568 5.6-2.352 8.904-2.352 3.304 0 6.02.616 8.148 1.848 2.128 1.232 3.724 3.108 4.788 5.628 1.064 2.464 1.596 5.6 1.596 9.408v20.328c0 1.736-.448 3.08-1.344 4.032-.896.896-2.184 1.344-3.864 1.344-1.68 0-2.996-.448-3.948-1.344-.896-.952-1.344-2.296-1.344-4.032V52.472c0-3.192-.616-5.516-1.848-6.972-1.176-1.456-3.024-2.184-5.544-2.184-3.08 0-5.544.98-7.392 2.94-1.792 1.904-2.688 4.452-2.688 7.644v18.396c0 3.584-1.764 5.376-5.292 5.376Zm80.173 0c-1.512 0-2.744-.364-3.696-1.092-.896-.728-1.624-1.876-2.184-3.444L387.98 23.492c-.616-1.792-.504-3.304.336-4.536.896-1.232 2.38-1.848 4.452-1.848 1.512 0 2.688.364 3.528 1.092.84.672 1.512 1.764 2.016 3.276l15.12 44.856h-3.36l15.792-44.772c.56-1.512 1.26-2.632 2.1-3.36.84-.728 1.932-1.092 3.276-1.092 1.344 0 2.408.364 3.192 1.092.784.728 1.456 1.876 2.016 3.444l15.288 44.688h-2.94l15.372-44.856c.504-1.456 1.176-2.548 2.016-3.276.84-.728 1.988-1.092 3.444-1.092 1.792 0 3.108.616 3.948 1.848.84 1.232.952 2.744.336 4.536L456.188 73.22c-.56 1.512-1.288 2.632-2.184 3.36-.896.728-2.1 1.092-3.612 1.092s-2.716-.364-3.612-1.092c-.896-.728-1.624-1.876-2.184-3.444L429.98 31.472h1.932L417.128 73.22c-.56 1.512-1.288 2.632-2.184 3.36-.84.728-2.016 1.092-3.528 1.092Zm76.868-.084c-1.68 0-2.968-.504-3.864-1.512-.896-1.008-1.344-2.408-1.344-4.2V41.048c0-1.848.448-3.248 1.344-4.2.896-1.008 2.184-1.512 3.864-1.512 1.68 0 2.968.504 3.864 1.512.952.952 1.428 2.352 1.428 4.2v30.828c0 1.792-.448 3.192-1.344 4.2-.896 1.008-2.212 1.512-3.948 1.512Zm0-50.064c-1.96 0-3.5-.476-4.62-1.428-1.064-1.008-1.596-2.38-1.596-4.116 0-1.792.532-3.164 1.596-4.116 1.12-.952 2.66-1.428 4.62-1.428 2.016 0 3.556.476 4.62 1.428s1.596 2.324 1.596 4.116c0 1.736-.532 3.108-1.596 4.116-1.064.952-2.604 1.428-4.62 1.428Zm26.03 50.316c-4.648 0-8.148-1.316-10.5-3.948-2.352-2.688-3.528-6.608-3.528-11.76V22.4c0-1.736.448-3.052 1.344-3.948.896-.896 2.184-1.344 3.864-1.344 1.68 0 2.968.448 3.864 1.344.952.896 1.428 2.212 1.428 3.948v39.228c0 2.576.532 4.48 1.596 5.712 1.12 1.232 2.688 1.848 4.704 1.848h1.26l1.176-.168c.784-.112 1.316.112 1.596.672.28.504.42 1.568.42 3.192 0 1.4-.28 2.492-.84 3.276-.56.784-1.484 1.26-2.772 1.428-.56.056-1.148.112-1.764.168-.616.056-1.232.084-1.848.084Zm22.624 0c-4.648 0-8.148-1.316-10.5-3.948-2.352-2.688-3.528-6.608-3.528-11.76V22.4c0-1.736.448-3.052 1.344-3.948.896-.896 2.184-1.344 3.864-1.344 1.68 0 2.968.448 3.864 1.344.952.896 1.428 2.212 1.428 3.948v39.228c0 2.576.532 4.48 1.596 5.712 1.12 1.232 2.688 1.848 4.704 1.848h1.26l1.176-.168c.784-.112 1.316.112 1.596.672.28.504.42 1.568.42 3.192 0 1.4-.28 2.492-.84 3.276-.56.784-1.484 1.26-2.772 1.428-.56.056-1.148.112-1.764.168-.616.056-1.232.084-1.848.084Zm13.804-.252c-1.68 0-2.968-.504-3.864-1.512-.896-1.008-1.344-2.408-1.344-4.2V41.048c0-1.848.448-3.248 1.344-4.2.896-1.008 2.184-1.512 3.864-1.512 1.68 0 2.968.504 3.864 1.512.952.952 1.428 2.352 1.428 4.2v30.828c0 1.792-.448 3.192-1.344 4.2-.896 1.008-2.212 1.512-3.948 1.512Zm0-50.064c-1.96 0-3.5-.476-4.62-1.428-1.064-1.008-1.596-2.38-1.596-4.116 0-1.792.532-3.164 1.596-4.116 1.12-.952 2.66-1.428 4.62-1.428 2.016 0 3.556.476 4.62 1.428s1.596 2.324 1.596 4.116c0 1.736-.532 3.108-1.596 4.116-1.064.952-2.604 1.428-4.62 1.428Zm25.526 50.316c-2.968 0-5.628-.56-7.98-1.68-2.296-1.176-4.116-2.744-5.46-4.704-1.288-1.96-1.932-4.172-1.932-6.636 0-3.024.784-5.404 2.352-7.14 1.568-1.792 4.116-3.08 7.644-3.864 3.528-.784 8.26-1.176 14.196-1.176h4.2v6.048h-4.116c-3.472 0-6.244.168-8.316.504-2.072.336-3.556.924-4.452 1.764-.84.784-1.26 1.904-1.26 3.36 0 1.848.644 3.36 1.932 4.536 1.288 1.176 3.08 1.764 5.376 1.764 1.848 0 3.472-.42 4.872-1.26a9.696 9.696 0 0 0 3.444-3.612c.84-1.512 1.26-3.248 1.26-5.208v-9.66c0-2.8-.616-4.816-1.848-6.048-1.232-1.232-3.304-1.848-6.216-1.848-1.624 0-3.388.196-5.292.588-1.848.392-3.808 1.064-5.88 2.016-1.064.504-2.016.644-2.856.42a3.213 3.213 0 0 1-1.848-1.344 4.408 4.408 0 0 1-.672-2.352c0-.84.224-1.652.672-2.436.448-.84 1.204-1.456 2.268-1.848 2.576-1.064 5.04-1.82 7.392-2.268 2.408-.448 4.592-.672 6.552-.672 4.032 0 7.336.616 9.912 1.848 2.632 1.232 4.592 3.108 5.88 5.628 1.288 2.464 1.932 5.656 1.932 9.576v20.16c0 1.736-.42 3.08-1.26 4.032-.84.896-2.044 1.344-3.612 1.344s-2.8-.448-3.696-1.344c-.84-.952-1.26-2.296-1.26-4.032v-4.032h.672c-.392 1.96-1.176 3.668-2.352 5.124-1.12 1.4-2.548 2.492-4.284 3.276-1.736.784-3.724 1.176-5.964 1.176Zm33.59-.168c-1.68 0-2.968-.448-3.864-1.344-.896-.952-1.344-2.296-1.344-4.032V40.544c0-1.736.448-3.052 1.344-3.948.896-.896 2.156-1.344 3.78-1.344 1.624 0 2.884.448 3.78 1.344.896.896 1.344 2.212 1.344 3.948v6.132l-.924-2.52c1.12-2.8 2.856-5.012 5.208-6.636 2.352-1.624 5.152-2.436 8.4-2.436 3.304 0 6.02.784 8.148 2.352 2.128 1.568 3.612 3.976 4.452 7.224h-1.176c1.12-2.968 2.968-5.292 5.544-6.972 2.576-1.736 5.544-2.604 8.904-2.604 3.136 0 5.712.616 7.728 1.848 2.072 1.232 3.612 3.108 4.62 5.628 1.008 2.464 1.512 5.6 1.512 9.408v20.328c0 1.736-.476 3.08-1.428 4.032-.896.896-2.184 1.344-3.864 1.344-1.68 0-2.968-.448-3.864-1.344-.896-.952-1.344-2.296-1.344-4.032V52.388c0-3.136-.532-5.432-1.596-6.888-1.008-1.456-2.744-2.184-5.208-2.184-2.744 0-4.9.98-6.468 2.94-1.568 1.904-2.352 4.564-2.352 7.98v18.06c0 1.736-.448 3.08-1.344 4.032-.896.896-2.184 1.344-3.864 1.344-1.68 0-2.996-.448-3.948-1.344-.896-.952-1.344-2.296-1.344-4.032V52.388c0-3.136-.532-5.432-1.596-6.888-1.008-1.456-2.716-2.184-5.124-2.184-2.744 0-4.9.98-6.468 2.94-1.568 1.904-2.352 4.564-2.352 7.98v18.06c0 3.584-1.764 5.376-5.292 5.376Zm79.124.168c-2.408 0-4.956-.252-7.644-.756-2.688-.504-5.096-1.372-7.224-2.604-.896-.56-1.54-1.204-1.932-1.932-.336-.784-.476-1.54-.42-2.268.112-.784.392-1.456.84-2.016a3.487 3.487 0 0 1 1.848-1.092c.784-.168 1.624-.028 2.52.42 2.24 1.064 4.34 1.82 6.3 2.268 1.96.392 3.892.588 5.796.588 2.688 0 4.676-.448 5.964-1.344 1.344-.952 2.016-2.184 2.016-3.696 0-1.288-.448-2.268-1.344-2.94-.84-.728-2.128-1.26-3.864-1.596l-8.4-1.596c-3.472-.672-6.132-1.932-7.98-3.78-1.792-1.904-2.688-4.34-2.688-7.308 0-2.688.728-5.012 2.184-6.972 1.512-1.96 3.584-3.472 6.216-4.536 2.632-1.064 5.656-1.596 9.072-1.596 2.464 0 4.76.28 6.888.84a24.062 24.062 0 0 1 6.3 2.436c.84.448 1.4 1.036 1.68 1.764.336.728.42 1.484.252 2.268a4.894 4.894 0 0 1-1.008 2.016c-.504.56-1.148.924-1.932 1.092-.728.112-1.568-.056-2.52-.504-1.736-.896-3.416-1.54-5.04-1.932-1.568-.392-3.08-.588-4.536-.588-2.744 0-4.788.476-6.132 1.428-1.288.952-1.932 2.212-1.932 3.78 0 1.176.392 2.156 1.176 2.94.784.784 1.988 1.316 3.612 1.596l8.4 1.596c3.64.672 6.384 1.904 8.232 3.696 1.904 1.792 2.856 4.2 2.856 7.224 0 4.088-1.596 7.308-4.788 9.66-3.192 2.296-7.448 3.444-12.768 3.444Z" fill="#0E0230"/><path d="M183.84 138.32c-1.557 0-2.933-.203-4.128-.608-1.173-.405-2.165-1.003-2.976-1.792-.811-.811-1.419-1.813-1.824-3.008s-.608-2.581-.608-4.16v-11.488c0-.704.171-1.227.512-1.568.363-.341.875-.512 1.536-.512s1.163.171 1.504.512c.363.341.544.864.544 1.568v11.456c0 2.027.459 3.552 1.376 4.576.939 1.003 2.293 1.504 4.064 1.504s3.115-.501 4.032-1.504c.917-1.024 1.376-2.549 1.376-4.576v-11.456c0-.704.171-1.227.512-1.568.363-.341.875-.512 1.536-.512.64 0 1.131.171 1.472.512.363.341.544.864.544 1.568v11.488c0 2.091-.363 3.851-1.088 5.28a7.044 7.044 0 0 1-3.168 3.232c-1.408.704-3.147 1.056-5.216 1.056Zm20.457-.064c-.661 0-1.173-.181-1.536-.544-.341-.384-.512-.907-.512-1.568v-18.848c0-.683.171-1.205.512-1.568.363-.363.875-.544 1.536-.544s1.163.181 1.504.544c.363.363.544.885.544 1.568v18.848c0 .661-.171 1.184-.512 1.568-.341.363-.853.544-1.536.544Zm12.679-.096c-.725 0-1.312-.224-1.76-.672-.426-.448-.64-1.024-.64-1.728 0-.683.214-1.237.64-1.664.448-.448 1.035-.672 1.76-.672.747 0 1.323.224 1.728.672.427.427.64.981.64 1.664 0 .704-.213 1.28-.64 1.728-.405.448-.981.672-1.728.672Zm19.313.16c-1.558 0-2.934-.203-4.128-.608-1.174-.405-2.166-1.003-2.976-1.792-.811-.811-1.419-1.813-1.824-3.008-.406-1.195-.608-2.581-.608-4.16v-11.488c0-.704.17-1.227.512-1.568.362-.341.874-.512 1.536-.512.661 0 1.162.171 1.504.512.362.341.544.864.544 1.568v11.456c0 2.027.458 3.552 1.376 4.576.938 1.003 2.293 1.504 4.064 1.504 1.77 0 3.114-.501 4.032-1.504.917-1.024 1.376-2.549 1.376-4.576v-11.456c0-.704.17-1.227.512-1.568.362-.341.874-.512 1.536-.512.64 0 1.13.171 1.472.512.362.341.544.864.544 1.568v11.488c0 2.091-.363 3.851-1.088 5.28a7.044 7.044 0 0 1-3.168 3.232c-1.408.704-3.147 1.056-5.216 1.056Zm18.927-.064c-.534 0-.971-.139-1.312-.416a1.754 1.754 0 0 1-.608-1.088c-.043-.448.106-.896.448-1.344l7.328-9.76v1.76l-6.976-9.344c-.342-.469-.491-.917-.448-1.344.042-.448.234-.811.576-1.088.341-.299.768-.448 1.28-.448.426 0 .8.107 1.12.32.341.192.682.523 1.024.992l5.76 7.936h-1.312l5.728-7.936c.341-.469.672-.8.992-.992a2.19 2.19 0 0 1 1.184-.32c.533 0 .97.139 1.312.416.341.277.533.64.576 1.088.042.427-.118.885-.48 1.376l-6.976 9.344v-1.76l7.296 9.76c.341.448.49.896.448 1.344a1.623 1.623 0 0 1-.576 1.088c-.342.277-.79.416-1.344.416-.406 0-.779-.107-1.12-.32-.32-.213-.662-.555-1.024-1.024l-6.08-8.32h1.408l-6.048 8.32c-.342.469-.683.811-1.024 1.024-.342.213-.726.32-1.152.32Zm45.515.064c-.938 0-1.877-.075-2.816-.224a14.678 14.678 0 0 1-2.656-.608 10.94 10.94 0 0 1-2.24-1.088c-.384-.256-.65-.565-.8-.928a2.082 2.082 0 0 1-.16-1.056 1.95 1.95 0 0 1 .416-.928c.235-.277.523-.448.864-.512.342-.064.715.032 1.12.288.939.555 1.931.96 2.976 1.216 1.046.256 2.144.384 3.296.384 1.686 0 2.912-.277 3.68-.832.768-.576 1.152-1.312 1.152-2.208 0-.747-.277-1.333-.832-1.76-.533-.427-1.461-.779-2.784-1.056l-3.52-.736c-2.026-.427-3.541-1.141-4.544-2.144-.981-1.024-1.472-2.368-1.472-4.032 0-1.045.214-1.995.64-2.848a6.616 6.616 0 0 1 1.792-2.208c.79-.619 1.718-1.088 2.784-1.408 1.088-.341 2.283-.512 3.584-.512 1.28 0 2.496.16 3.648.48 1.152.32 2.187.789 3.104 1.408.342.235.566.523.672.864.128.341.16.683.096 1.024-.064.32-.213.597-.448.832a1.466 1.466 0 0 1-.896.416c-.341.043-.736-.064-1.184-.32a9.1 9.1 0 0 0-2.4-.96 11.363 11.363 0 0 0-2.624-.288c-.981 0-1.824.139-2.528.416-.704.277-1.248.672-1.632 1.184-.362.491-.544 1.077-.544 1.76 0 .768.256 1.387.768 1.856.512.448 1.387.8 2.624 1.056l3.488.736c2.112.448 3.68 1.152 4.704 2.112 1.046.96 1.568 2.24 1.568 3.84 0 1.024-.213 1.952-.64 2.784-.405.832-1.002 1.547-1.792 2.144-.768.597-1.696 1.056-2.784 1.376-1.088.32-2.314.48-3.68.48Zm26.684 0c-2.176 0-4.086-.48-5.728-1.44-1.622-.96-2.88-2.304-3.776-4.032-.896-1.749-1.344-3.797-1.344-6.144 0-1.771.256-3.36.768-4.768.512-1.429 1.237-2.645 2.176-3.648a9.5 9.5 0 0 1 3.424-2.336c1.344-.555 2.837-.832 4.48-.832 2.197 0 4.106.48 5.728 1.44 1.621.939 2.88 2.272 3.776 4 .896 1.728 1.344 3.765 1.344 6.112 0 1.771-.256 3.371-.768 4.8-.512 1.429-1.248 2.656-2.208 3.68-.939 1.024-2.08 1.813-3.424 2.368-1.323.533-2.806.8-4.448.8Zm0-3.52c1.386 0 2.56-.32 3.52-.96.981-.64 1.728-1.568 2.24-2.784.533-1.216.8-2.667.8-4.352 0-2.56-.576-4.544-1.728-5.952-1.131-1.408-2.742-2.112-4.832-2.112-1.366 0-2.539.32-3.52.96-.982.619-1.739 1.536-2.272 2.752-.512 1.195-.768 2.645-.768 4.352 0 2.539.576 4.523 1.728 5.952 1.152 1.429 2.762 2.144 4.832 2.144Zm21.285 3.456c-.662 0-1.184-.181-1.568-.544-.363-.384-.544-.928-.544-1.632v-18.464c0-.704.181-1.237.544-1.6.384-.384.928-.576 1.632-.576h11.168c.554 0 .97.139 1.248.416.277.277.416.672.416 1.184 0 .533-.139.949-.416 1.248-.278.277-.694.416-1.248.416h-9.248v6.368h8.576c.533 0 .938.139 1.216.416.298.277.448.672.448 1.184 0 .533-.15.949-.448 1.248-.278.277-.683.416-1.216.416h-8.576v7.744c0 1.451-.662 2.176-1.984 2.176Zm27.755 0c-.662 0-1.174-.181-1.536-.544-.342-.384-.512-.907-.512-1.568v-17.28h-6.24c-.555 0-.992-.149-1.312-.448-.299-.32-.448-.747-.448-1.28 0-.555.149-.971.448-1.248.32-.299.757-.448 1.312-.448h16.576c.554 0 .981.149 1.28.448.32.277.48.693.48 1.248 0 .533-.16.96-.48 1.28-.299.299-.726.448-1.28.448h-6.24v17.28c0 .661-.171 1.184-.512 1.568-.342.363-.854.544-1.536.544Zm24.951 0c-.576 0-1.045-.139-1.408-.416-.341-.277-.618-.715-.832-1.312l-6.688-18.912c-.234-.683-.192-1.259.128-1.728.342-.469.907-.704 1.696-.704.576 0 1.024.139 1.344.416.32.256.576.672.768 1.248l5.76 17.088h-1.28l6.016-17.056c.214-.576.48-1.003.8-1.28.32-.277.736-.416 1.248-.416s.918.139 1.216.416c.299.277.555.715.768 1.312l5.824 17.024h-1.12l5.856-17.088c.192-.555.448-.971.768-1.248s.758-.416 1.312-.416c.683 0 1.184.235 1.504.704.32.469.363 1.045.128 1.728l-6.752 18.944c-.213.576-.49 1.003-.832 1.28-.341.277-.8.416-1.376.416-.576 0-1.034-.139-1.376-.416-.341-.277-.618-.715-.832-1.312l-5.568-15.872h.736l-5.632 15.904c-.213.576-.49 1.003-.832 1.28-.32.277-.768.416-1.344.416Zm30.167 0c-.512 0-.928-.117-1.248-.352a1.44 1.44 0 0 1-.544-.928c-.064-.405.011-.853.224-1.344l8.448-18.72c.277-.619.608-1.056.992-1.312a2.381 2.381 0 0 1 1.376-.416c.491 0 .928.139 1.312.416.405.256.747.693 1.024 1.312l8.48 18.72c.235.491.32.939.256 1.344-.064.405-.245.725-.544.96-.299.213-.693.32-1.184.32-.597 0-1.067-.139-1.408-.416-.32-.299-.608-.747-.864-1.344l-2.08-4.832 1.728 1.12h-13.504l1.728-1.12-2.048 4.832c-.277.619-.565 1.067-.864 1.344-.299.277-.725.416-1.28.416Zm9.184-18.368-4.48 10.656-.832-1.024h10.688l-.8 1.024-4.512-10.656h-.064Zm20.612 18.368c-.661 0-1.173-.181-1.536-.544-.341-.384-.512-.907-.512-1.568V117.52c0-.683.182-1.195.544-1.536.363-.363.875-.544 1.536-.544h7.712c2.475 0 4.384.597 5.728 1.792 1.344 1.173 2.016 2.827 2.016 4.96 0 1.387-.309 2.581-.928 3.584-.597 1.003-1.472 1.771-2.624 2.304-1.152.533-2.549.8-4.192.8l.288-.48h1.056c.875 0 1.632.213 2.272.64.662.427 1.238 1.099 1.728 2.016l2.4 4.448c.256.448.374.885.352 1.312a1.482 1.482 0 0 1-.48 1.056c-.298.256-.736.384-1.312.384-.576 0-1.045-.117-1.408-.352-.362-.256-.682-.64-.96-1.152l-3.232-5.952c-.384-.725-.842-1.205-1.376-1.44-.512-.256-1.173-.384-1.984-.384h-3.04v7.168c0 .661-.17 1.184-.512 1.568-.341.363-.853.544-1.536.544Zm2.048-12.32h4.992c1.472 0 2.582-.299 3.328-.896.768-.619 1.152-1.536 1.152-2.752 0-1.195-.384-2.091-1.152-2.688-.746-.619-1.856-.928-3.328-.928h-4.992v7.264ZM487.595 138c-.704 0-1.248-.181-1.632-.544-.363-.384-.544-.928-.544-1.632v-18.208c0-.704.181-1.237.544-1.6.384-.384.928-.576 1.632-.576h11.424c.533 0 .939.139 1.216.416.299.277.448.672.448 1.184 0 .533-.149.949-.448 1.248-.277.277-.683.416-1.216.416h-9.664v6.208h8.96c.555 0 .971.139 1.248.416.277.277.416.683.416 1.216 0 .533-.139.939-.416 1.216-.277.277-.693.416-1.248.416h-8.96v6.56h9.664c.533 0 .939.139 1.216.416.299.277.448.683.448 1.216 0 .533-.149.939-.448 1.216-.277.277-.683.416-1.216.416h-11.424Zm36.101 0c-.704 0-1.248-.181-1.632-.544-.362-.384-.544-.928-.544-1.632v-18.208c0-.704.182-1.237.544-1.6.384-.384.928-.576 1.632-.576h11.424c.534 0 .939.139 1.216.416.299.277.448.672.448 1.184 0 .533-.149.949-.448 1.248-.277.277-.682.416-1.216.416h-9.664v6.208h8.96c.555 0 .971.139 1.248.416.278.277.416.683.416 1.216 0 .533-.138.939-.416 1.216-.277.277-.693.416-1.248.416h-8.96v6.56h9.664c.534 0 .939.139 1.216.416.299.277.448.683.448 1.216 0 .533-.149.939-.448 1.216-.277.277-.682.416-1.216.416h-11.424Zm22.998.256c-.619 0-1.099-.171-1.44-.512-.32-.341-.48-.832-.48-1.472v-19.04c0-.661.16-1.163.48-1.504.341-.363.779-.544 1.312-.544.491 0 .853.096 1.088.288.256.171.555.469.896.896l12.256 15.904h-.832v-15.136c0-.619.16-1.099.48-1.44.341-.341.821-.512 1.44-.512s1.088.171 1.408.512c.32.341.48.821.48 1.44v19.2c0 .597-.149 1.067-.448 1.408-.299.341-.704.512-1.216.512-.491 0-.885-.096-1.184-.288-.277-.192-.587-.501-.928-.928l-12.224-15.904h.8v15.136c0 .64-.16 1.131-.48 1.472-.32.341-.789.512-1.408.512Zm37.026.064c-2.496 0-4.608-.469-6.336-1.408a9.416 9.416 0 0 1-3.904-4c-.896-1.728-1.344-3.776-1.344-6.144 0-1.792.256-3.403.768-4.832.533-1.429 1.29-2.645 2.272-3.648 1.002-1.024 2.218-1.803 3.648-2.336 1.429-.555 3.05-.832 4.864-.832 1.194 0 2.389.149 3.584.448 1.216.277 2.357.757 3.424 1.44.362.235.597.523.704.864.128.341.149.693.064 1.056a2.05 2.05 0 0 1-.48.896 1.545 1.545 0 0 1-.896.48c-.342.064-.726-.021-1.152-.256a9.75 9.75 0 0 0-2.464-1.024c-.832-.213-1.76-.32-2.784-.32-1.579 0-2.912.32-4 .96-1.088.619-1.91 1.525-2.464 2.72-.534 1.195-.8 2.656-.8 4.384 0 2.624.629 4.619 1.888 5.984 1.258 1.365 3.125 2.048 5.6 2.048.853 0 1.717-.085 2.592-.256a17.488 17.488 0 0 0 2.56-.704l-.8 1.824v-6.816h-3.52c-.534 0-.95-.139-1.248-.416-.278-.277-.416-.651-.416-1.12 0-.491.138-.864.416-1.12.298-.256.714-.384 1.248-.384h5.28c.533 0 .938.149 1.216.448.298.277.448.683.448 1.216v7.776c0 .469-.096.864-.288 1.184-.171.32-.459.555-.864.704-.939.341-2.016.629-3.232.864-1.216.213-2.411.32-3.584.32Zm18.922-.064c-.661 0-1.173-.181-1.536-.544-.341-.384-.512-.907-.512-1.568v-18.848c0-.683.171-1.205.512-1.568.363-.363.875-.544 1.536-.544s1.163.181 1.504.544c.363.363.544.885.544 1.568v18.848c0 .661-.171 1.184-.512 1.568-.341.363-.853.544-1.536.544Zm13.063 0c-.618 0-1.098-.171-1.44-.512-.32-.341-.48-.832-.48-1.472v-19.04c0-.661.16-1.163.48-1.504.342-.363.779-.544 1.312-.544.491 0 .854.096 1.088.288.256.171.555.469.896.896l12.256 15.904h-.832v-15.136c0-.619.16-1.099.48-1.44.342-.341.822-.512 1.44-.512.619 0 1.088.171 1.408.512.32.341.48.821.48 1.44v19.2c0 .597-.149 1.067-.448 1.408-.298.341-.704.512-1.216.512-.49 0-.885-.096-1.184-.288-.277-.192-.586-.501-.928-.928l-12.224-15.904h.8v15.136c0 .64-.16 1.131-.48 1.472-.32.341-.789.512-1.408.512Zm28.354-.256c-.704 0-1.248-.181-1.632-.544-.363-.384-.544-.928-.544-1.632v-18.208c0-.704.181-1.237.544-1.6.384-.384.928-.576 1.632-.576h11.424c.533 0 .938.139 1.216.416.298.277.448.672.448 1.184 0 .533-.15.949-.448 1.248-.278.277-.683.416-1.216.416h-9.664v6.208h8.96c.554 0 .97.139 1.248.416.277.277.416.683.416 1.216 0 .533-.139.939-.416 1.216-.278.277-.694.416-1.248.416h-8.96v6.56h9.664c.533 0 .938.139 1.216.416.298.277.448.683.448 1.216 0 .533-.15.939-.448 1.216-.278.277-.683.416-1.216.416h-11.424Zm23.253 0c-.704 0-1.248-.181-1.632-.544-.362-.384-.544-.928-.544-1.632v-18.208c0-.704.182-1.237.544-1.6.384-.384.928-.576 1.632-.576h11.424c.534 0 .939.139 1.216.416.299.277.448.672.448 1.184 0 .533-.149.949-.448 1.248-.277.277-.682.416-1.216.416h-9.664v6.208h8.96c.555 0 .971.139 1.248.416.278.277.416.683.416 1.216 0 .533-.138.939-.416 1.216-.277.277-.693.416-1.248.416h-8.96v6.56h9.664c.534 0 .939.139 1.216.416.299.277.448.683.448 1.216 0 .533-.149.939-.448 1.216-.277.277-.682.416-1.216.416h-11.424Zm23.126.256c-.661 0-1.173-.181-1.536-.544-.341-.384-.512-.907-.512-1.568V117.52c0-.683.182-1.195.544-1.536.363-.363.875-.544 1.536-.544h7.712c2.475 0 4.384.597 5.728 1.792 1.344 1.173 2.016 2.827 2.016 4.96 0 1.387-.309 2.581-.928 3.584-.597 1.003-1.472 1.771-2.624 2.304-1.152.533-2.549.8-4.192.8l.288-.48h1.056c.875 0 1.632.213 2.272.64.662.427 1.238 1.099 1.728 2.016l2.4 4.448c.256.448.374.885.352 1.312a1.482 1.482 0 0 1-.48 1.056c-.298.256-.736.384-1.312.384-.576 0-1.045-.117-1.408-.352-.362-.256-.682-.64-.96-1.152l-3.232-5.952c-.384-.725-.842-1.205-1.376-1.44-.512-.256-1.173-.384-1.984-.384h-3.04v7.168c0 .661-.17 1.184-.512 1.568-.341.363-.853.544-1.536.544Zm2.048-12.32h4.992c1.472 0 2.582-.299 3.328-.896.768-.619 1.152-1.536 1.152-2.752 0-1.195-.384-2.091-1.152-2.688-.746-.619-1.856-.928-3.328-.928h-4.992v7.264Z" fill="#1C1C20"/></svg>