<svg width="130" height="151" viewBox="0 0 130 151" fill="none" xmlns="http://www.w3.org/2000/svg">
<path d="M65.2313 150.999C61.2319 151.055 57.776 148.757 57.329 144.637C57.1851 143.309 57.3071 141.839 57.3038 140.493C55.4688 140.32 53.5664 139.922 51.7627 139.549C23.5827 133.712 3.26374 110.09 0.169007 82.089C-0.0532132 80.0784 0.00688617 78.0327 0.00881539 76.012C0.0368055 46.5022 20.6849 20.3171 49.7191 13.1907C52.1992 12.5819 54.7121 12.061 57.2535 11.78L57.2293 11.4668C56.8163 5.82158 57.9823 0.441702 64.7196 0.00110455L64.7605 0C67.0075 0.0258028 69.1091 0.934295 70.6966 2.51239C73.337 5.137 72.856 8.48051 72.8449 11.8813C73.1441 12.1161 74.2588 12.128 74.6855 12.2025L80.8973 13.3947C106.772 19.4942 126.747 42.8645 129.681 68.9679C130.347 74.8931 129.925 82.5663 128.84 88.3353C124.202 112.993 104.393 133.605 79.7675 139.261C76.1376 140.095 72.6343 140.062 72.6258 140.644C72.5862 143.407 72.8779 145.778 71.0249 148.109C69.5518 149.962 67.5179 150.713 65.2313 150.999ZM57.21 26.8183C30.9382 31.7111 13.1061 53.5239 14.8446 79.9584C16.2029 100.61 31.7645 119.319 51.9543 124.44L55.3043 125.152C55.9112 125.263 56.7715 125.276 57.3222 125.524L57.3258 114.379C56.972 114.117 56.5917 114.055 56.2039 113.868L44.9375 107.461C42.8255 106.212 40.7063 104.94 38.8059 103.383C32.8423 98.4965 29.8 90.3465 29.5086 82.7756C29.4877 82.2307 29.4226 81.6402 29.4786 81.0981C30.5236 81.7731 31.7057 82.2943 32.7958 82.9118L55.081 96.3585C55.7085 96.7449 57.038 97.3347 57.4827 97.776L57.5775 82.657C57.5955 81.5947 57.057 81.6564 56.2111 81.1059L30.2803 65.1335C29.6486 64.7445 29.781 64.7182 29.917 64.0312L30.2695 62.406C32.5218 53.2025 38.2163 49.3376 45.6069 44.7919L53.3561 40.1565C53.6972 39.9657 57.2626 38.1771 57.3159 38.078L57.21 26.8183ZM72.6817 26.8749C72.4476 29.4337 72.3658 35.8565 72.6984 38.3451C74.2081 39.1871 75.8669 39.837 77.4103 40.6313L85.4744 45.2683C93.4225 50.1764 98.9783 55.0373 100.134 64.9691L100.034 65.0198C99.1392 65.4848 98.3146 66.1062 97.4598 66.644L73.391 81.5264C73.0568 81.7188 72.8462 81.7338 72.5977 82.0558L72.7098 97.7253C72.9678 97.4575 73.3412 97.3789 73.6538 97.1924L98.449 82.3577C99.2314 81.9096 100.059 81.5014 100.79 80.9733C100.566 82.7002 100.585 84.446 100.296 86.1664C99.2501 92.387 96.2339 99.4415 91.1277 103.368L84.4251 107.853L73.6283 113.837C73.2517 114.011 72.8478 114.067 72.5663 114.384L72.7353 125.586C73.1078 125.421 73.5701 125.409 73.9681 125.328L76.3705 124.8C99.8367 119.402 115.78 98.7711 115.333 75.1037C114.889 51.564 96.2346 30.0362 72.6817 26.8749ZM65.198 50.4549L49.9542 59.7676L65.1875 69.1924C67.0248 68.2731 68.7719 67.1848 70.521 66.112L79.0622 60.7659C79.4683 60.503 79.9729 60.2297 80.2976 59.8755L65.198 50.4549Z" fill="#0E0230"/>
</svg>
