<svg width="176" height="306" viewBox="0 0 176 306" fill="none" xmlns="http://www.w3.org/2000/svg">
<path d="M87.6477 95.9994C85.0942 96.0349 82.8878 94.5738 82.6024 91.9549C82.5105 91.1105 82.5884 90.1756 82.5863 89.32C81.4147 89.2103 80.2001 88.9572 79.0485 88.7198C61.0566 85.0088 48.0838 69.9909 46.1079 52.189C45.966 50.9107 46.0044 49.6102 46.0056 48.3255C46.0235 29.5643 59.2065 12.9169 77.7437 8.38611C79.3272 7.99908 80.9316 7.66793 82.5542 7.48928L82.5387 7.29018C82.275 3.70114 83.0195 0.280817 87.321 0.000702228L87.3471 0C88.7817 0.0164044 90.1235 0.593989 91.137 1.59728C92.8229 3.26591 92.5158 5.39158 92.5087 7.55368C92.6997 7.70293 93.4114 7.71053 93.6838 7.75787L97.6498 8.51586C114.17 12.3936 126.923 27.2516 128.796 43.8471C129.221 47.6142 128.952 52.4925 128.259 56.1602C125.298 71.8367 112.651 84.9406 96.9285 88.5366C94.611 89.0667 92.3742 89.0463 92.3688 89.4159C92.3435 91.1729 92.5297 92.6798 91.3466 94.1618C90.4061 95.3399 89.1076 95.8178 87.6477 95.9994ZM82.5264 17.0501C65.7529 20.1607 54.3677 34.0284 55.4777 50.8345C56.3449 63.9638 66.2804 75.8585 79.1708 79.1142L81.3097 79.5668C81.6972 79.6377 82.2464 79.6458 82.598 79.8036L82.6003 72.7177C82.3744 72.5509 82.1316 72.5119 81.884 72.3927L74.6909 68.3193C73.3424 67.5253 71.9894 66.7168 70.7761 65.7268C66.9685 62.6203 65.0261 57.4388 64.8401 52.6256C64.8268 52.2791 64.7852 51.9037 64.8209 51.5591C65.4882 51.9882 66.2428 52.3196 66.9389 52.7121L81.1671 61.261C81.5677 61.5067 82.4166 61.8817 82.7005 62.1622L82.761 52.5501C82.7725 51.8748 82.4287 51.914 81.8886 51.564L65.3328 41.4094C64.9295 41.1621 65.014 41.1454 65.1009 40.7086L65.3259 39.6754C66.7639 33.8241 70.3996 31.367 75.1182 28.477L80.0658 25.53C80.2836 25.4087 82.56 24.2715 82.594 24.2085L82.5264 17.0501ZM92.4045 17.086C92.255 18.7128 92.2028 22.7962 92.4151 24.3783C93.379 24.9137 94.4381 25.3269 95.4235 25.8318L100.572 28.7798C105.647 31.9002 109.194 34.9906 109.931 41.3049L109.868 41.3371C109.297 41.6327 108.77 42.0278 108.224 42.3697L92.8573 51.8314C92.6439 51.9537 92.5095 51.9632 92.3508 52.1679L92.4224 62.13C92.5872 61.9598 92.8256 61.9098 93.0252 61.7912L108.856 52.3599C109.355 52.075 109.884 51.8155 110.351 51.4797C110.208 52.5776 110.22 53.6875 110.035 54.7813C109.367 58.7361 107.442 63.2211 104.182 65.7175L99.9022 68.5688L93.0089 72.3733C92.7684 72.4836 92.5105 72.5195 92.3308 72.721L92.4387 79.8424C92.6765 79.7381 92.9717 79.73 93.2258 79.6786L94.7596 79.3429C109.742 75.9114 119.921 62.7949 119.636 47.748C119.352 32.7824 107.442 19.0959 92.4045 17.086ZM87.6264 32.0773L77.8938 37.9979L87.6197 43.9899C88.7928 43.4054 89.9082 42.7135 91.0249 42.0315L96.4782 38.6326C96.7375 38.4655 97.0596 38.2917 97.2669 38.0665L87.6264 32.0773Z" fill="#0E0230"/>
<path d="M26.844 186.672C25.108 186.672 23.764 186.196 22.812 185.244C21.916 184.236 21.468 182.864 21.468 181.128V131.568C21.468 129.776 21.916 128.432 22.812 127.536C23.764 126.584 25.108 126.108 26.844 126.108C28.58 126.108 29.896 126.584 30.792 127.536C31.744 128.432 32.22 129.776 32.22 131.568V152.988H32.388L56.496 128.796C57.392 127.9 58.288 127.228 59.184 126.78C60.08 126.332 61.088 126.108 62.208 126.108C63.832 126.108 64.98 126.528 65.652 127.368C66.38 128.208 66.66 129.188 66.492 130.308C66.38 131.428 65.848 132.464 64.896 133.416L40.368 157.692L40.452 152.82L66.072 178.86C67.248 179.98 67.864 181.156 67.92 182.388C67.976 183.62 67.584 184.656 66.744 185.496C65.96 186.28 64.784 186.672 63.216 186.672C61.872 186.672 60.78 186.392 59.94 185.832C59.156 185.272 58.232 184.46 57.168 183.396L32.388 158.616H32.22V181.128C32.22 182.864 31.772 184.236 30.876 185.244C29.98 186.196 28.636 186.672 26.844 186.672ZM96.5227 186.672C95.0107 186.672 93.7787 186.308 92.8267 185.58C91.9307 184.852 91.2027 183.704 90.6427 182.136L73.0867 132.492C72.4707 130.7 72.5827 129.188 73.4227 127.956C74.3187 126.724 75.8027 126.108 77.8747 126.108C79.3867 126.108 80.5627 126.472 81.4027 127.2C82.2427 127.872 82.9147 128.964 83.4187 130.476L98.5387 175.332H95.1787L110.971 130.56C111.531 129.048 112.231 127.928 113.071 127.2C113.911 126.472 115.003 126.108 116.347 126.108C117.691 126.108 118.755 126.472 119.539 127.2C120.323 127.928 120.995 129.076 121.555 130.644L136.843 175.332H133.903L149.275 130.476C149.779 129.02 150.451 127.928 151.291 127.2C152.131 126.472 153.279 126.108 154.735 126.108C156.527 126.108 157.843 126.724 158.683 127.956C159.523 129.188 159.635 130.7 159.019 132.492L141.295 182.22C140.735 183.732 140.007 184.852 139.111 185.58C138.215 186.308 137.011 186.672 135.499 186.672C133.987 186.672 132.783 186.308 131.887 185.58C130.991 184.852 130.263 183.704 129.703 182.136L115.087 140.472H117.019L102.235 182.22C101.675 183.732 100.947 184.852 100.051 185.58C99.2107 186.308 98.0347 186.672 96.5227 186.672Z" fill="#0E0230"/>
<path d="M64.2058 241.24C63.0378 241.24 62.0058 241.088 61.1098 240.784C60.2298 240.48 59.4858 240.032 58.8778 239.44C58.2698 238.832 57.8138 238.08 57.5098 237.184C57.2058 236.288 57.0538 235.248 57.0538 234.064V225.448C57.0538 224.92 57.1818 224.528 57.4378 224.272C57.7098 224.016 58.0938 223.888 58.5898 223.888C59.0858 223.888 59.4618 224.016 59.7178 224.272C59.9898 224.528 60.1258 224.92 60.1258 225.448V234.04C60.1258 235.56 60.4698 236.704 61.1578 237.472C61.8618 238.224 62.8778 238.6 64.2058 238.6C65.5338 238.6 66.5418 238.224 67.2298 237.472C67.9178 236.704 68.2618 235.56 68.2618 234.04V225.448C68.2618 224.92 68.3898 224.528 68.6458 224.272C68.9178 224.016 69.3018 223.888 69.7978 223.888C70.2778 223.888 70.6458 224.016 70.9018 224.272C71.1738 224.528 71.3098 224.92 71.3098 225.448V234.064C71.3098 235.632 71.0378 236.952 70.4938 238.024C69.9658 239.096 69.1738 239.904 68.1178 240.448C67.0618 240.976 65.7578 241.24 64.2058 241.24ZM75.4685 241.192C74.9725 241.192 74.5885 241.056 74.3165 240.784C74.0605 240.496 73.9325 240.104 73.9325 239.608V225.472C73.9325 224.96 74.0605 224.568 74.3165 224.296C74.5885 224.024 74.9725 223.888 75.4685 223.888C75.9645 223.888 76.3405 224.024 76.5965 224.296C76.8685 224.568 77.0045 224.96 77.0045 225.472V239.608C77.0045 240.104 76.8765 240.496 76.6205 240.784C76.3645 241.056 75.9805 241.192 75.4685 241.192ZM80.898 241.12C80.354 241.12 79.914 240.952 79.578 240.616C79.258 240.28 79.098 239.848 79.098 239.32C79.098 238.808 79.258 238.392 79.578 238.072C79.914 237.736 80.354 237.568 80.898 237.568C81.458 237.568 81.89 237.736 82.194 238.072C82.514 238.392 82.674 238.808 82.674 239.32C82.674 239.848 82.514 240.28 82.194 240.616C81.89 240.952 81.458 241.12 80.898 241.12ZM91.3023 241.24C90.1343 241.24 89.1023 241.088 88.2063 240.784C87.3263 240.48 86.5823 240.032 85.9743 239.44C85.3663 238.832 84.9103 238.08 84.6063 237.184C84.3023 236.288 84.1503 235.248 84.1503 234.064V225.448C84.1503 224.92 84.2783 224.528 84.5343 224.272C84.8063 224.016 85.1903 223.888 85.6863 223.888C86.1823 223.888 86.5583 224.016 86.8143 224.272C87.0863 224.528 87.2223 224.92 87.2223 225.448V234.04C87.2223 235.56 87.5663 236.704 88.2543 237.472C88.9583 238.224 89.9743 238.6 91.3023 238.6C92.6303 238.6 93.6383 238.224 94.3263 237.472C95.0143 236.704 95.3583 235.56 95.3583 234.04V225.448C95.3583 224.92 95.4863 224.528 95.7423 224.272C96.0143 224.016 96.3983 223.888 96.8943 223.888C97.3743 223.888 97.7423 224.016 97.9983 224.272C98.2703 224.528 98.4063 224.92 98.4063 225.448V234.064C98.4063 235.632 98.1343 236.952 97.5903 238.024C97.0623 239.096 96.2703 239.904 95.2143 240.448C94.1583 240.976 92.8543 241.24 91.3023 241.24ZM101.418 241.192C101.018 241.192 100.69 241.088 100.434 240.88C100.178 240.656 100.026 240.384 99.9776 240.064C99.9456 239.728 100.058 239.392 100.314 239.056L105.81 231.736V233.056L100.578 226.048C100.322 225.696 100.21 225.36 100.242 225.04C100.274 224.704 100.418 224.432 100.674 224.224C100.93 224 101.25 223.888 101.634 223.888C101.954 223.888 102.234 223.968 102.474 224.128C102.73 224.272 102.986 224.52 103.242 224.872L107.562 230.824H106.578L110.874 224.872C111.13 224.52 111.378 224.272 111.618 224.128C111.874 223.968 112.17 223.888 112.506 223.888C112.906 223.888 113.234 223.992 113.49 224.2C113.746 224.408 113.89 224.68 113.922 225.016C113.954 225.336 113.834 225.68 113.562 226.048L108.33 233.056V231.736L113.802 239.056C114.058 239.392 114.17 239.728 114.138 240.064C114.106 240.384 113.962 240.656 113.706 240.88C113.45 241.088 113.114 241.192 112.698 241.192C112.394 241.192 112.114 241.112 111.858 240.952C111.618 240.792 111.362 240.536 111.09 240.184L106.53 233.944H107.586L103.05 240.184C102.794 240.536 102.538 240.792 102.282 240.952C102.026 241.112 101.738 241.192 101.418 241.192ZM31.1059 268.24C30.4019 268.24 29.6979 268.184 28.9939 268.072C28.2899 267.976 27.6259 267.824 27.0019 267.616C26.3779 267.392 25.8179 267.12 25.3219 266.8C25.0339 266.608 24.8339 266.376 24.7219 266.104C24.6099 265.832 24.5699 265.568 24.6019 265.312C24.6499 265.04 24.7539 264.808 24.9139 264.616C25.0899 264.408 25.3059 264.28 25.5619 264.232C25.8179 264.184 26.0979 264.256 26.4019 264.448C27.1059 264.864 27.8499 265.168 28.6339 265.36C29.4179 265.552 30.2419 265.648 31.1059 265.648C32.3699 265.648 33.2899 265.44 33.8659 265.024C34.4419 264.592 34.7299 264.04 34.7299 263.368C34.7299 262.808 34.5219 262.368 34.1059 262.048C33.7059 261.728 33.0099 261.464 32.0179 261.256L29.3779 260.704C27.8579 260.384 26.7219 259.848 25.9699 259.096C25.2339 258.328 24.8659 257.32 24.8659 256.072C24.8659 255.288 25.0259 254.576 25.3459 253.936C25.6659 253.296 26.1139 252.744 26.6899 252.28C27.2819 251.816 27.9779 251.464 28.7779 251.224C29.5939 250.968 30.4899 250.84 31.4659 250.84C32.4259 250.84 33.3379 250.96 34.2019 251.2C35.0659 251.44 35.8419 251.792 36.5299 252.256C36.7859 252.432 36.9539 252.648 37.0339 252.904C37.1299 253.16 37.1539 253.416 37.1059 253.672C37.0579 253.912 36.9459 254.12 36.7699 254.296C36.5939 254.472 36.3699 254.576 36.0979 254.608C35.8419 254.64 35.5459 254.56 35.2099 254.368C34.6179 254.032 34.0179 253.792 33.4099 253.648C32.8019 253.504 32.1459 253.432 31.4419 253.432C30.7059 253.432 30.0739 253.536 29.5459 253.744C29.0179 253.952 28.6099 254.248 28.3219 254.632C28.0499 255 27.9139 255.44 27.9139 255.952C27.9139 256.528 28.1059 256.992 28.4899 257.344C28.8739 257.68 29.5299 257.944 30.4579 258.136L33.0739 258.688C34.6579 259.024 35.8339 259.552 36.6019 260.272C37.3859 260.992 37.7779 261.952 37.7779 263.152C37.7779 263.92 37.6179 264.616 37.2979 265.24C36.9939 265.864 36.5459 266.4 35.9539 266.848C35.3779 267.296 34.6819 267.64 33.8659 267.88C33.0499 268.12 32.1299 268.24 31.1059 268.24ZM47.0386 268.24C45.4066 268.24 43.9746 267.88 42.7426 267.16C41.5266 266.44 40.5826 265.432 39.9106 264.136C39.2386 262.824 38.9026 261.288 38.9026 259.528C38.9026 258.2 39.0946 257.008 39.4786 255.952C39.8626 254.88 40.4066 253.968 41.1106 253.216C41.8306 252.448 42.6866 251.864 43.6786 251.464C44.6866 251.048 45.8066 250.84 47.0386 250.84C48.6866 250.84 50.1186 251.2 51.3346 251.92C52.5506 252.624 53.4946 253.624 54.1666 254.92C54.8386 256.216 55.1746 257.744 55.1746 259.504C55.1746 260.832 54.9826 262.032 54.5986 263.104C54.2146 264.176 53.6626 265.096 52.9426 265.864C52.2386 266.632 51.3826 267.224 50.3746 267.64C49.3826 268.04 48.2706 268.24 47.0386 268.24ZM47.0386 265.6C48.0786 265.6 48.9586 265.36 49.6786 264.88C50.4146 264.4 50.9746 263.704 51.3586 262.792C51.7586 261.88 51.9586 260.792 51.9586 259.528C51.9586 257.608 51.5266 256.12 50.6626 255.064C49.8146 254.008 48.6066 253.48 47.0386 253.48C46.0146 253.48 45.1346 253.72 44.3986 254.2C43.6626 254.664 43.0946 255.352 42.6946 256.264C42.3106 257.16 42.1186 258.248 42.1186 259.528C42.1186 261.432 42.5506 262.92 43.4146 263.992C44.2786 265.064 45.4866 265.6 47.0386 265.6ZM58.9223 268.192C58.4263 268.192 58.0343 268.056 57.7463 267.784C57.4743 267.496 57.3383 267.088 57.3383 266.56V252.712C57.3383 252.184 57.4743 251.784 57.7463 251.512C58.0343 251.224 58.4423 251.08 58.9703 251.08H67.3463C67.7623 251.08 68.0743 251.184 68.2823 251.392C68.4903 251.6 68.5943 251.896 68.5943 252.28C68.5943 252.68 68.4903 252.992 68.2823 253.216C68.0743 253.424 67.7623 253.528 67.3463 253.528H60.4103V258.304H66.8423C67.2423 258.304 67.5463 258.408 67.7543 258.616C67.9783 258.824 68.0903 259.12 68.0903 259.504C68.0903 259.904 67.9783 260.216 67.7543 260.44C67.5463 260.648 67.2423 260.752 66.8423 260.752H60.4103V266.56C60.4103 267.648 59.9143 268.192 58.9223 268.192ZM75.6584 268.192C75.1624 268.192 74.7784 268.056 74.5064 267.784C74.2504 267.496 74.1224 267.104 74.1224 266.608V253.648H69.4424C69.0264 253.648 68.6984 253.536 68.4584 253.312C68.2344 253.072 68.1224 252.752 68.1224 252.352C68.1224 251.936 68.2344 251.624 68.4584 251.416C68.6984 251.192 69.0264 251.08 69.4424 251.08H81.8744C82.2904 251.08 82.6104 251.192 82.8344 251.416C83.0744 251.624 83.1944 251.936 83.1944 252.352C83.1944 252.752 83.0744 253.072 82.8344 253.312C82.6104 253.536 82.2904 253.648 81.8744 253.648H77.1944V266.608C77.1944 267.104 77.0664 267.496 76.8104 267.784C76.5544 268.056 76.1704 268.192 75.6584 268.192ZM90.2922 268.192C89.8602 268.192 89.5082 268.088 89.2362 267.88C88.9802 267.672 88.7722 267.344 88.6122 266.896L83.5962 252.712C83.4202 252.2 83.4522 251.768 83.6922 251.416C83.9482 251.064 84.3722 250.888 84.9642 250.888C85.3962 250.888 85.7322 250.992 85.9722 251.2C86.2122 251.392 86.4042 251.704 86.5482 252.136L90.8682 264.952H89.9082L94.4202 252.16C94.5802 251.728 94.7802 251.408 95.0202 251.2C95.2602 250.992 95.5722 250.888 95.9562 250.888C96.3402 250.888 96.6442 250.992 96.8682 251.2C97.0922 251.408 97.2842 251.736 97.4442 252.184L101.812 264.952H100.972L105.364 252.136C105.508 251.72 105.7 251.408 105.94 251.2C106.18 250.992 106.508 250.888 106.924 250.888C107.436 250.888 107.812 251.064 108.052 251.416C108.292 251.768 108.324 252.2 108.148 252.712L103.084 266.92C102.924 267.352 102.716 267.672 102.46 267.88C102.204 268.088 101.86 268.192 101.428 268.192C100.996 268.192 100.652 268.088 100.396 267.88C100.14 267.672 99.9322 267.344 99.7722 266.896L95.5962 254.992H96.1482L91.9242 266.92C91.7642 267.352 91.5562 267.672 91.3002 267.88C91.0602 268.088 90.7242 268.192 90.2922 268.192ZM108.837 268.192C108.453 268.192 108.141 268.104 107.901 267.928C107.677 267.752 107.541 267.52 107.493 267.232C107.445 266.928 107.501 266.592 107.661 266.224L113.997 252.184C114.205 251.72 114.453 251.392 114.741 251.2C115.045 250.992 115.389 250.888 115.773 250.888C116.141 250.888 116.469 250.992 116.757 251.2C117.061 251.392 117.317 251.72 117.525 252.184L123.885 266.224C124.061 266.592 124.125 266.928 124.077 267.232C124.029 267.536 123.893 267.776 123.669 267.952C123.445 268.112 123.149 268.192 122.781 268.192C122.333 268.192 121.981 268.088 121.725 267.88C121.485 267.656 121.269 267.32 121.077 266.872L119.517 263.248L120.813 264.088H110.685L111.981 263.248L110.445 266.872C110.237 267.336 110.021 267.672 109.797 267.88C109.573 268.088 109.253 268.192 108.837 268.192ZM115.725 254.416L112.365 262.408L111.741 261.64H119.757L119.157 262.408L115.773 254.416H115.725ZM127.105 268.192C126.609 268.192 126.225 268.056 125.953 267.784C125.697 267.496 125.569 267.104 125.569 266.608V252.64C125.569 252.128 125.705 251.744 125.977 251.488C126.249 251.216 126.633 251.08 127.129 251.08H132.913C134.769 251.08 136.201 251.528 137.209 252.424C138.217 253.304 138.721 254.544 138.721 256.144C138.721 257.184 138.489 258.08 138.025 258.832C137.577 259.584 136.921 260.16 136.057 260.56C135.193 260.96 134.145 261.16 132.913 261.16L133.129 260.8H133.921C134.577 260.8 135.145 260.96 135.625 261.28C136.121 261.6 136.553 262.104 136.921 262.792L138.721 266.128C138.913 266.464 139.001 266.792 138.985 267.112C138.969 267.432 138.849 267.696 138.625 267.904C138.401 268.096 138.073 268.192 137.641 268.192C137.209 268.192 136.857 268.104 136.585 267.928C136.313 267.736 136.073 267.448 135.865 267.064L133.441 262.6C133.153 262.056 132.809 261.696 132.409 261.52C132.025 261.328 131.529 261.232 130.921 261.232H128.641V266.608C128.641 267.104 128.513 267.496 128.257 267.784C128.001 268.056 127.617 268.192 127.105 268.192ZM128.641 258.952H132.385C133.489 258.952 134.321 258.728 134.881 258.28C135.457 257.816 135.745 257.128 135.745 256.216C135.745 255.32 135.457 254.648 134.881 254.2C134.321 253.736 133.489 253.504 132.385 253.504H128.641V258.952ZM142.694 268C142.166 268 141.758 267.864 141.47 267.592C141.198 267.304 141.062 266.896 141.062 266.368V252.712C141.062 252.184 141.198 251.784 141.47 251.512C141.758 251.224 142.166 251.08 142.694 251.08H151.262C151.662 251.08 151.966 251.184 152.174 251.392C152.398 251.6 152.51 251.896 152.51 252.28C152.51 252.68 152.398 252.992 152.174 253.216C151.966 253.424 151.662 253.528 151.262 253.528H144.014V258.184H150.734C151.15 258.184 151.462 258.288 151.67 258.496C151.878 258.704 151.982 259.008 151.982 259.408C151.982 259.808 151.878 260.112 151.67 260.32C151.462 260.528 151.15 260.632 150.734 260.632H144.014V265.552H151.262C151.662 265.552 151.966 265.656 152.174 265.864C152.398 266.072 152.51 266.376 152.51 266.776C152.51 267.176 152.398 267.48 152.174 267.688C151.966 267.896 151.662 268 151.262 268H142.694ZM34.9572 295C34.4292 295 34.0212 294.864 33.7332 294.592C33.4612 294.304 33.3252 293.896 33.3252 293.368V279.712C33.3252 279.184 33.4612 278.784 33.7332 278.512C34.0212 278.224 34.4292 278.08 34.9572 278.08H43.5252C43.9252 278.08 44.2292 278.184 44.4372 278.392C44.6612 278.6 44.7732 278.896 44.7732 279.28C44.7732 279.68 44.6612 279.992 44.4372 280.216C44.2292 280.424 43.9252 280.528 43.5252 280.528H36.2772V285.184H42.9972C43.4132 285.184 43.7252 285.288 43.9332 285.496C44.1412 285.704 44.2452 286.008 44.2452 286.408C44.2452 286.808 44.1412 287.112 43.9332 287.32C43.7252 287.528 43.4132 287.632 42.9972 287.632H36.2772V292.552H43.5252C43.9252 292.552 44.2292 292.656 44.4372 292.864C44.6612 293.072 44.7732 293.376 44.7732 293.776C44.7732 294.176 44.6612 294.48 44.4372 294.688C44.2292 294.896 43.9252 295 43.5252 295H34.9572ZM48.1255 295.192C47.6615 295.192 47.3015 295.064 47.0455 294.808C46.8055 294.552 46.6855 294.184 46.6855 293.704V279.424C46.6855 278.928 46.8055 278.552 47.0455 278.296C47.3015 278.024 47.6295 277.888 48.0295 277.888C48.3975 277.888 48.6695 277.96 48.8455 278.104C49.0375 278.232 49.2615 278.456 49.5175 278.776L58.7095 290.704H58.0855V279.352C58.0855 278.888 58.2055 278.528 58.4455 278.272C58.7015 278.016 59.0615 277.888 59.5255 277.888C59.9895 277.888 60.3415 278.016 60.5815 278.272C60.8215 278.528 60.9415 278.888 60.9415 279.352V293.752C60.9415 294.2 60.8295 294.552 60.6055 294.808C60.3815 295.064 60.0775 295.192 59.6935 295.192C59.3255 295.192 59.0295 295.12 58.8055 294.976C58.5975 294.832 58.3655 294.6 58.1095 294.28L48.9415 282.352H49.5415V293.704C49.5415 294.184 49.4215 294.552 49.1815 294.808C48.9415 295.064 48.5895 295.192 48.1255 295.192ZM71.8146 295.24C69.9426 295.24 68.3586 294.888 67.0626 294.184C65.7826 293.48 64.8066 292.48 64.1346 291.184C63.4626 289.888 63.1266 288.352 63.1266 286.576C63.1266 285.232 63.3186 284.024 63.7026 282.952C64.1026 281.88 64.6706 280.968 65.4066 280.216C66.1586 279.448 67.0706 278.864 68.1426 278.464C69.2146 278.048 70.4306 277.84 71.7906 277.84C72.6866 277.84 73.5826 277.952 74.4786 278.176C75.3906 278.384 76.2466 278.744 77.0466 279.256C77.3186 279.432 77.4946 279.648 77.5746 279.904C77.6706 280.16 77.6866 280.424 77.6226 280.696C77.5586 280.952 77.4386 281.176 77.2626 281.368C77.0866 281.56 76.8626 281.68 76.5906 281.728C76.3346 281.776 76.0466 281.712 75.7266 281.536C75.1186 281.184 74.5026 280.928 73.8786 280.768C73.2546 280.608 72.5586 280.528 71.7906 280.528C70.6066 280.528 69.6066 280.768 68.7906 281.248C67.9746 281.712 67.3586 282.392 66.9426 283.288C66.5426 284.184 66.3426 285.28 66.3426 286.576C66.3426 288.544 66.8146 290.04 67.7586 291.064C68.7026 292.088 70.1026 292.6 71.9586 292.6C72.5986 292.6 73.2466 292.536 73.9026 292.408C74.5586 292.28 75.1986 292.104 75.8226 291.88L75.2226 293.248V288.136H72.5826C72.1826 288.136 71.8706 288.032 71.6466 287.824C71.4386 287.616 71.3346 287.336 71.3346 286.984C71.3346 286.616 71.4386 286.336 71.6466 286.144C71.8706 285.952 72.1826 285.856 72.5826 285.856H76.5426C76.9426 285.856 77.2466 285.968 77.4546 286.192C77.6786 286.4 77.7906 286.704 77.7906 287.104V292.936C77.7906 293.288 77.7186 293.584 77.5746 293.824C77.4466 294.064 77.2306 294.24 76.9266 294.352C76.2226 294.608 75.4146 294.824 74.5026 295C73.5906 295.16 72.6946 295.24 71.8146 295.24ZM81.9265 295.192C81.4305 295.192 81.0465 295.056 80.7745 294.784C80.5185 294.496 80.3905 294.104 80.3905 293.608V279.472C80.3905 278.96 80.5185 278.568 80.7745 278.296C81.0465 278.024 81.4305 277.888 81.9265 277.888C82.4225 277.888 82.7985 278.024 83.0545 278.296C83.3265 278.568 83.4625 278.96 83.4625 279.472V293.608C83.4625 294.104 83.3345 294.496 83.0785 294.784C82.8225 295.056 82.4385 295.192 81.9265 295.192ZM87.6439 295.192C87.1799 295.192 86.8199 295.064 86.5639 294.808C86.3239 294.552 86.2039 294.184 86.2039 293.704V279.424C86.2039 278.928 86.3239 278.552 86.5639 278.296C86.8199 278.024 87.1479 277.888 87.5479 277.888C87.9159 277.888 88.1879 277.96 88.3639 278.104C88.5559 278.232 88.7799 278.456 89.0359 278.776L98.2279 290.704H97.6039V279.352C97.6039 278.888 97.7239 278.528 97.9639 278.272C98.2199 278.016 98.5799 277.888 99.0439 277.888C99.5079 277.888 99.8599 278.016 100.1 278.272C100.34 278.528 100.46 278.888 100.46 279.352V293.752C100.46 294.2 100.348 294.552 100.124 294.808C99.8999 295.064 99.5959 295.192 99.2119 295.192C98.8439 295.192 98.5479 295.12 98.3239 294.976C98.1159 294.832 97.8839 294.6 97.6279 294.28L88.4599 282.352H89.0599V293.704C89.0599 294.184 88.9399 294.552 88.6999 294.808C88.4599 295.064 88.1079 295.192 87.6439 295.192ZM104.829 295C104.301 295 103.893 294.864 103.605 294.592C103.333 294.304 103.197 293.896 103.197 293.368V279.712C103.197 279.184 103.333 278.784 103.605 278.512C103.893 278.224 104.301 278.08 104.829 278.08H113.397C113.797 278.08 114.101 278.184 114.309 278.392C114.533 278.6 114.645 278.896 114.645 279.28C114.645 279.68 114.533 279.992 114.309 280.216C114.101 280.424 113.797 280.528 113.397 280.528H106.149V285.184H112.869C113.285 285.184 113.597 285.288 113.805 285.496C114.013 285.704 114.117 286.008 114.117 286.408C114.117 286.808 114.013 287.112 113.805 287.32C113.597 287.528 113.285 287.632 112.869 287.632H106.149V292.552H113.397C113.797 292.552 114.101 292.656 114.309 292.864C114.533 293.072 114.645 293.376 114.645 293.776C114.645 294.176 114.533 294.48 114.309 294.688C114.101 294.896 113.797 295 113.397 295H104.829ZM118.189 295C117.661 295 117.253 294.864 116.965 294.592C116.693 294.304 116.557 293.896 116.557 293.368V279.712C116.557 279.184 116.693 278.784 116.965 278.512C117.253 278.224 117.661 278.08 118.189 278.08H126.757C127.157 278.08 127.461 278.184 127.669 278.392C127.893 278.6 128.005 278.896 128.005 279.28C128.005 279.68 127.893 279.992 127.669 280.216C127.461 280.424 127.157 280.528 126.757 280.528H119.509V285.184H126.229C126.645 285.184 126.957 285.288 127.165 285.496C127.373 285.704 127.477 286.008 127.477 286.408C127.477 286.808 127.373 287.112 127.165 287.32C126.957 287.528 126.645 287.632 126.229 287.632H119.509V292.552H126.757C127.157 292.552 127.461 292.656 127.669 292.864C127.893 293.072 128.005 293.376 128.005 293.776C128.005 294.176 127.893 294.48 127.669 294.688C127.461 294.896 127.157 295 126.757 295H118.189ZM131.454 295.192C130.958 295.192 130.574 295.056 130.302 294.784C130.046 294.496 129.918 294.104 129.918 293.608V279.64C129.918 279.128 130.054 278.744 130.326 278.488C130.598 278.216 130.982 278.08 131.478 278.08H137.262C139.118 278.08 140.55 278.528 141.558 279.424C142.566 280.304 143.07 281.544 143.07 283.144C143.07 284.184 142.838 285.08 142.374 285.832C141.926 286.584 141.27 287.16 140.406 287.56C139.542 287.96 138.494 288.16 137.262 288.16L137.478 287.8H138.27C138.926 287.8 139.494 287.96 139.974 288.28C140.47 288.6 140.902 289.104 141.27 289.792L143.07 293.128C143.262 293.464 143.35 293.792 143.334 294.112C143.318 294.432 143.198 294.696 142.974 294.904C142.75 295.096 142.422 295.192 141.99 295.192C141.558 295.192 141.206 295.104 140.934 294.928C140.662 294.736 140.422 294.448 140.214 294.064L137.79 289.6C137.502 289.056 137.158 288.696 136.758 288.52C136.374 288.328 135.878 288.232 135.27 288.232H132.99V293.608C132.99 294.104 132.862 294.496 132.606 294.784C132.35 295.056 131.966 295.192 131.454 295.192ZM132.99 285.952H136.734C137.838 285.952 138.67 285.728 139.23 285.28C139.806 284.816 140.094 284.128 140.094 283.216C140.094 282.32 139.806 281.648 139.23 281.2C138.67 280.736 137.838 280.504 136.734 280.504H132.99V285.952Z" fill="#1C1C20"/>
</svg>
